linjasuwi.sfdir
StartChar: numbersign
Encoding: 35 35 205
Width: 622
Flags: W
HStem: 208 50<37.201 62 562 586.799> 408 50<37.201 62 562 586.799>
VStem: 189.918 50<58.201 83 583 607.799> 384.082 50<58.201 83 583 607.799>
LayerCount: 3
Fore
SplineSet
62 258 m 2
 48.2021484375 258 37 246.797851562 37 233 c 0
 37 219.202148438 48.2021484375 208 62 208 c 2
 189.91796875 208 l 1
 189.91796875 83 l 2
 189.91796875 69.2021484375 201.120117188 58 214.91796875 58 c 0
 228.715820312 58 239.91796875 69.2021484375 239.91796875 83 c 2
 239.91796875 208 l 1
 384.08203125 208 l 1
 384.08203125 83 l 2
 384.08203125 69.2021484375 395.284179688 58 409.08203125 58 c 0
 422.879882812 58 434.08203125 69.2021484375 434.08203125 83 c 2
 434.08203125 208 l 1
 562 208 l 2
 575.797851562 208 587 219.202148438 587 233 c 0
 587 246.797851562 575.797851562 258 562 258 c 2
 434.08203125 258 l 1
 434.08203125 408 l 1
 562 408 l 2
 575.797851562 408 587 419.202148438 587 433 c 0
 587 446.797851562 575.797851562 458 562 458 c 2
 434.08203125 458 l 1
 434.08203125 583 l 2
 434.08203125 596.797851562 422.879882812 608 409.08203125 608 c 0
 395.284179688 608 384.08203125 596.797851562 384.08203125 583 c 2
 384.08203125 458 l 1
 239.91796875 458 l 1
 239.91796875 583 l 2
 239.91796875 596.797851562 228.715820312 608 214.91796875 608 c 0
 201.120117188 608 189.91796875 596.797851562 189.91796875 583 c 2
 189.91796875 458 l 1
 62 458 l 2
 48.2021484375 458 37 446.797851562 37 433 c 0
 37 419.202148438 48.2021484375 408 62 408 c 2
 189.91796875 408 l 1
 189.91796875 258 l 1
 62 258 l 2
384.08203125 408 m 1
 384.08203125 258 l 1
 239.91796875 258 l 1
 239.91796875 408 l 1
 384.08203125 408 l 1
EndSplineSet
EndChar
StartChar: parenleft
Encoding: 40 40 201
Width: 303
Flags: W
VStem: 38 50<211.11 440.021>
LayerCount: 3
Fore
SplineSet
273.125 633.86328125 m 0
 273.125 651.547851562 253.969726562 665.0859375 236.61328125 656.056640625 c 0
 235.194335938 655.319335938 38 553.551757812 38 325.56640625 c 0
 38 97.578125 235.194335938 -4.1904296875 236.61328125 -4.927734375 c 0
 253.947265625 -13.9453125 273.125 -0.4267578125 273.125 17.265625 c 0
 273.125 26.9130859375 267.6484375 35.2919921875 259.63671875 39.458984375 c 1
 259.63671875 39.458984375 88 129.000976562 88 325.56640625 c 0
 88 522.12890625 259.63671875 611.669921875 259.63671875 611.669921875 c 1
 267.6484375 615.836914062 273.125 624.215820312 273.125 633.86328125 c 0
EndSplineSet
EndChar
StartChar: parenright
Encoding: 41 41 202
Width: 302
Flags: W
VStem: 215.129 50<218.594 447.506>
LayerCount: 3
Fore
SplineSet
66.51171875 663.544921875 m 0
 49.1787109375 672.5625 30 659.043945312 30 641.3515625 c 0
 30 631.704101562 35.4765625 623.325195312 43.48828125 619.158203125 c 1
 43.48828125 619.158203125 215.12890625 529.612304688 215.12890625 333.05078125 c 0
 215.12890625 136.484375 43.48828125 46.9443359375 43.48828125 46.9443359375 c 1
 35.4765625 42.7763671875 30 34.3974609375 30 24.75 c 0
 30 7.0654296875 49.1552734375 -6.47265625 66.51171875 2.5556640625 c 0
 67.9306640625 3.2939453125 265.12890625 105.060546875 265.12890625 333.05078125 c 0
 265.12890625 561.036132812 67.9306640625 662.807617188 66.51171875 663.544921875 c 0
EndSplineSet
EndChar
StartChar: asterisk
Encoding: 42 42 203
Width: 616
Flags: W
HStem: 307.996 50.0039<33.2036 58 558 582.799>
LayerCount: 3
Fore
SplineSet
33 333 m 0
 33 318.915039062 44.3525390625 307.99609375 58 307.99609375 c 0
 125.358398438 307.99609375 192.717773438 307.998046875 260.076171875 307.998046875 c 1
 137.482421875 132.280273438 l 2
 125.749023438 115.462890625 138.655273438 93 158 93 c 0
 166.490234375 93 173.998046875 97.2412109375 178.517578125 103.719726562 c 2
 308 289.311523438 l 1
 437.482421875 103.719726562 l 2
 442.001953125 97.2412109375 449.509765625 93 458 93 c 0
 477.327148438 93 490.270507812 115.434570312 478.517578125 132.280273438 c 2
 355.923828125 307.998046875 l 1
 423.282226562 307.998046875 490.641601562 308 558 308 c 0
 571.797851562 308 583 319.202148438 583 333 c 0
 583 346.797851562 571.797851562 358 558 358 c 2
 355.921875 358 l 1
 478.517578125 533.719726562 l 2
 490.250976562 550.537109375 477.344726562 573 458 573 c 0
 449.509765625 573 442.001953125 568.758789062 437.482421875 562.280273438 c 2
 308 376.688476562 l 1
 178.517578125 562.280273438 l 2
 173.998046875 568.758789062 166.490234375 573 158 573 c 0
 138.672851562 573 125.729492188 550.565429688 137.482421875 533.719726562 c 2
 260.078125 358 l 1
 58 358 l 2
 44.2021484375 358 33 346.797851562 33 333 c 0
EndSplineSet
EndChar
StartChar: plus
Encoding: 43 43 204
Width: 568
Flags: W
HStem: 308 50<34.201 59 509 533.799>
VStem: 259 50<83.201 108 558 582.799>
LayerCount: 3
Fore
SplineSet
59 358 m 2
 45.2021484375 358 34 346.797851562 34 333 c 0
 34 319.202148438 45.2021484375 308 59 308 c 2
 259 308 l 1
 259 108 l 2
 259 94.2021484375 270.202148438 83 284 83 c 0
 297.797851562 83 309 94.2021484375 309 108 c 2
 309 308 l 1
 509 308 l 2
 522.797851562 308 534 319.202148438 534 333 c 0
 534 346.797851562 522.797851562 358 509 358 c 2
 309 358 l 1
 309 558 l 2
 309 571.797851562 297.797851562 583 284 583 c 0
 270.202148438 583 259 571.797851562 259 558 c 2
 259 358 l 1
 59 358 l 2
EndSplineSet
EndChar
StartChar: period
Encoding: 46 46 211
Width: 182
VWidth: 0
Flags: W
HStem: 36.96 100<50.2239 131.775>
VStem: 41 100<46.1841 127.735>
LayerCount: 3
Fore
SplineSet
141 86.9599609375 m 0
 141 59.34375 118.61328125 36.9599609375 91 36.9599609375 c 0
 63.3828125 36.9599609375 41 59.34375 41 86.9599609375 c 0
 41 114.57421875 63.3828125 136.959960938 91 136.959960938 c 0
 118.61328125 136.959960938 141 114.57421875 141 86.9599609375 c 0
141 86.9599609375 m 1024
EndSplineSet
EndChar
StartChar: two
Encoding: 50 50 226
Width: 428
Flags: W
HStem: 58 50<363 387.799> 558 50<129.83 311.59>
VStem: 38 50<434.662 517.19> 338 50<384.482 531.917>
LayerCount: 3
Fore
SplineSet
38 459.4609375 m 0
 38 445.663085938 49.2021484375 434.4609375 63 434.4609375 c 0
 76.7978515625 434.4609375 88 445.663085938 88 459.4609375 c 1
 88 459.4609375 87.388671875 476.849609375 98.6708984375 500.079101562 c 0
 115.9296875 535.615234375 152.447265625 558 213 558 c 0
 292.555664062 558 317.526367188 537.021484375 327.864257812 518.052734375 c 0
 337.064453125 501.170898438 338 477.263671875 338 451.19140625 c 0
 338 418.970703125 324.70703125 391.229492188 298.022460938 359.189453125 c 0
 276.76171875 333.661132812 247.299804688 306.2890625 212.870117188 274.475585938 c 0
 163.208007812 228.587890625 103.392578125 173.365234375 43.4833984375 98.6171875 c 0
 40.052734375 94.3369140625 38 88.90625 38 83 c 0
 38 69.2021484375 49.2021484375 58 63 58 c 2
 363 58 l 2
 376.797851562 58 388 69.2021484375 388 83 c 0
 388 96.7978515625 376.797851562 108 363 108 c 2
 116.70703125 108 l 1
 162.342773438 159.694335938 207.0390625 201.024414062 246.784179688 237.749023438 c 0
 281.212890625 269.560546875 312.013671875 297.87109375 336.458007812 327.221679688 c 0
 366.90625 363.78125 388 403.381835938 388 451.19140625 c 0
 388 476.598632812 388.935546875 510.483398438 371.798828125 541.927734375 c 0
 349.21484375 583.365234375 300.110351562 608 213 608 c 0
 172.529296875 608 140.342773438 599.708984375 115.211914062 586.13671875 c 0
 83.6923828125 569.114257812 64.58203125 544.3515625 53.6669921875 521.875976562 c 0
 38 489.619140625 38 461.6328125 38 459.4609375 c 0
EndSplineSet
EndChar
StartChar: five
Encoding: 53 53 229
Width: 439
Flags: W
HStem: 61.6143 50<70.3371 307.846> 338.64 50<98 288.327> 558 50<373 397.799>
VStem: 353 50<155.119 284.641>
LayerCount: 3
Fore
SplineSet
73 334.450195312 m 0
 78.291015625 334.450195312 101.770507812 338.639648438 148.350585938 338.639648438 c 0
 185.91015625 338.639648438 232.02734375 335.1640625 270.3515625 323.400390625 c 0
 301.263671875 313.912109375 325.485351562 299.49609375 339.009765625 280.400390625 c 0
 347.688476562 268.145507812 353 253.25 353 233 c 0
 353 178.051757812 334.379882812 149.587890625 306.782226562 132.625 c 0
 283.849609375 118.529296875 251.296875 111.614257812 212.890625 111.614257812 c 0
 169.1171875 111.614257812 118.65234375 120.435546875 69.478515625 133.612304688 c 0
 52.572265625 138.142578125 38 124.970703125 38 109.4609375 c 0
 38 97.9033203125 45.8603515625 88.1669921875 56.521484375 85.3095703125 c 0
 108.462890625 71.3916015625 162.520507812 61.6142578125 212.890625 61.6142578125 c 0
 256.788085938 61.6142578125 298.608398438 68.912109375 332.911132812 89.99609375 c 0
 376.856445312 117.0078125 403 165.275390625 403 233 c 0
 403 262.71484375 394.549804688 288.48046875 379.840820312 309.250976562 c 0
 356.982421875 341.526367188 321.526367188 360.004882812 285.024414062 371.208984375 c 0
 239.08203125 385.311523438 188.84375 388.639648438 148.350585938 388.639648438 c 0
 128.716796875 388.639648438 111.37109375 387.817382812 98 386.883789062 c 1
 98 558 l 1
 373 558 l 2
 386.797851562 558 398 569.202148438 398 583 c 0
 398 596.797851562 386.797851562 608 373 608 c 2
 73 608 l 2
 59.2021484375 608 48 596.797851562 48 583 c 2
 48 359.450195312 l 2
 48 345.65234375 59.2021484375 334.450195312 73 334.450195312 c 0
EndSplineSet
EndChar
StartChar: six
Encoding: 54 54 230
Width: 447
Flags: HMW
HStem: 58 50 334 50
VStem: 363 50
LayerCount: 3
Fore
SplineSet
238 334 m 3
 300 334 363 297 363 235 c 27
 363 166 307 108 238 108 c 3
 185 108 127.182617188 169.381835938 112 217 c 0
 90 286 143 334 238 334 c 3
369 507 m 0
 383 507 394 518 394 532 c 0
 394 540 389 548 383 553 c 0
 343 582 318 596 293 603 c 0
 273 609 256 608 238 608 c 0
 201 608 169 600 143 585 c 0
 102 562 78 523 63 483 c 0
 44 433 39 378 39 333 c 0
 39 293 47 247 63 203 c 0
 89 132 144 58 238 58 c 0
 271 58 300 64 323 75 c 0
 352 89 373 110 387 133 c 0
 407 166 413 204 413 235 c 0
 413 314 338 384 238 384 c 0
 192 384 151 368 120 351 c 0
 108 345 98 337 89 331 c 1
 89 374 93 424 109 466 c 0
 121 499 140 525 168 541 c 0
 186 551 208 558 238 558 c 0
 261 558 271 558 289 551 c 0
 303 545 323 534 354 512 c 0
 358 509 364 507 369 507 c 0
EndSplineSet
EndChar
StartChar: colon
Encoding: 58 58 222
Width: 180
Flags: W
HStem: 128 100<50.225 131.775> 438 100<50.225 131.775>
VStem: 41 100<137.225 218.775 447.225 528.775>
LayerCount: 3
Fore
SplineSet
141 178 m 0
 141 150.38671875 118.61328125 128 91 128 c 0
 63.38671875 128 41 150.38671875 41 178 c 0
 41 205.61328125 63.38671875 228 91 228 c 0
 118.61328125 228 141 205.61328125 141 178 c 0
141 488 m 0
 141 460.38671875 118.61328125 438 91 438 c 0
 63.38671875 438 41 460.38671875 41 488 c 0
 41 515.61328125 63.38671875 538 91 538 c 0
 118.61328125 538 141 515.61328125 141 488 c 0
141 488 m 1024
EndSplineSet
EndChar
StartChar: equal
Encoding: 61 61 206
Width: 539
Flags: W
HStem: 208 50<45.201 70 470 494.799> 408 50<45.201 70 470 494.799>
LayerCount: 3
Fore
SplineSet
70 258 m 2
 56.2021484375 258 45 246.797851562 45 233 c 0
 45 219.202148438 56.2021484375 208 70 208 c 2
 470 208 l 2
 483.797851562 208 495 219.202148438 495 233 c 0
 495 246.797851562 483.797851562 258 470 258 c 2
 70 258 l 2
70 458 m 2
 56.2021484375 458 45 446.797851562 45 433 c 0
 45 419.202148438 56.2021484375 408 70 408 c 2
 470 408 l 2
 483.797851562 408 495 419.202148438 495 433 c 0
 495 446.797851562 483.797851562 458 470 458 c 2
 70 458 l 2
EndSplineSet
EndChar
StartChar: question
Encoding: 63 63 173
Width: 473
Flags: W
HStem: 59.457 100<196.682 278.233> 523 50<124.728 352.415>
VStem: 36 50<408.201 485.403> 187.457 100<68.682 150.232> 212.465 50<218.724 243.523 268.785 305.452> 386 50<396.301 493.694>
LayerCount: 3
Fore
SplineSet
36 433.001953125 m 0xec
 36 419.204101562 47.2021484375 408 61 408 c 0
 74.796875 408 85.9990234375 419.201171875 86 432.998046875 c 0
 86.0009765625 442.900390625 90.78515625 458.749023438 96.3505859375 469.416015625 c 0
 113.874023438 502.998046875 151.45703125 523 211.00390625 523 c 0
 283.501953125 523 327.62109375 514.239257812 351.587890625 501.796875 c 0
 367.950195312 493.301757812 375.3828125 484.090820312 380.165039062 471.975585938 c 0
 384.0859375 462.040039062 386 449.12109375 386 433 c 0
 386 402.529296875 362.389648438 391.678710938 315.55859375 374.352539062 c 0
 275.61328125 359.575195312 212.440429688 338.318359375 212.45703125 268.78515625 c 2
 212.46484375 243.515625 l 2
 212.46875 229.721679688 223.669921875 218.5234375 237.46484375 218.5234375 c 0
 251.262695312 218.5234375 262.46484375 229.725585938 262.46484375 243.5234375 c 2
 262.45703125 268.80078125 l 2
 262.450195312 299.270507812 286.052734375 310.115234375 332.88671875 327.442382812 c 0
 372.831054688 342.219726562 436 363.47265625 436 433 c 0
 436 489.626953125 415.546875 524.931640625 374.576171875 546.203125 c 0
 338.223632812 565.075195312 286.849609375 573 211.00390625 573 c 0
 170.776367188 573 138.874023438 565.352539062 113.866210938 552.780273438 c 0
 82.4921875 537.0078125 63.1171875 513.81640625 51.9921875 492.49609375 c 0
 36.0146484375 461.875 36 435.3203125 36 433.001953125 c 0xec
287.45703125 109.45703125 m 0xf4
 287.45703125 81.84375 265.07421875 59.45703125 237.45703125 59.45703125 c 0
 209.84375 59.45703125 187.45703125 81.84375 187.45703125 109.45703125 c 0
 187.45703125 137.0703125 209.84375 159.45703125 237.45703125 159.45703125 c 0
 265.07421875 159.45703125 287.45703125 137.0703125 287.45703125 109.45703125 c 0xf4
287.45703125 109.45703125 m 1024
EndSplineSet
EndChar
StartChar: bracketleft
Encoding: 91 91 216
Width: 280
Flags: W
HStem: -25.3438 50<225.004 249.803> 641.332 50<225.004 249.803>
VStem: 50 200.004<-25.1427 24.4552 641.533 691.131>
LayerCount: 3
Fore
SplineSet
100 24.65625 m 1
 100 641.33203125 l 1
 225.00390625 641.33203125 l 2
 238.801757812 641.33203125 250.00390625 652.534179688 250.00390625 666.33203125 c 0
 250.00390625 680.129882812 238.801757812 691.33203125 225.00390625 691.33203125 c 2
 75 691.33203125 l 2
 61.2021484375 691.33203125 50 680.129882812 50 666.33203125 c 2
 50 -0.34375 l 2
 50 -14.1416015625 61.2021484375 -25.34375 75 -25.34375 c 2
 225.00390625 -25.34375 l 2
 238.801757812 -25.34375 250.00390625 -14.1416015625 250.00390625 -0.34375 c 0
 250.00390625 13.4541015625 238.801757812 24.65625 225.00390625 24.65625 c 2
 100 24.65625 l 1
EndSplineSet
EndChar
StartChar: underscore
Encoding: 95 95 241
Width: 434
Flags: W
HStem: 58 50<42.201 67 367 391.799>
LayerCount: 3
Fore
SplineSet
67 108 m 2
 53.2021484375 108 42 96.7978515625 42 83 c 0
 42 69.2021484375 53.2021484375 58 67 58 c 2
 367 58 l 2
 380.797851562 58 392 69.2021484375 392 83 c 0
 392 96.7978515625 380.797851562 108 367 108 c 2
 67 108 l 2
EndSplineSet
EndChar
StartChar: e
Encoding: 101 101 39
Width: 441
Flags: W
HStem: 58 50<372 396.799> 308 50<301.004 325.803> 558 50<372 396.799>
CounterMasks: 1 e0
LayerCount: 3
Fore
SplineSet
372 58 m 2
 385.797851562 58 397 69.2021484375 397 83 c 0
 397 96.7978515625 385.797851562 108 372 108 c 2
 97 108 l 1
 97 308 l 1
 301.00390625 308 l 2
 314.801757812 308 326.00390625 319.202148438 326.00390625 333 c 0
 326.00390625 346.797851562 314.801757812 358 301.00390625 358 c 2
 97 358 l 1
 97 558 l 1
 372 558 l 2
 385.797851562 558 397 569.202148438 397 583 c 0
 397 596.797851562 385.797851562 608 372 608 c 2
 72 608 l 2
 58.2021484375 608 47 596.797851562 47 583 c 0
 47 416.333007812 47 249.666992188 47 83 c 0
 47 69.2021484375 58.2021484375 58 72 58 c 2
 372 58 l 2
EndSplineSet
EndChar
StartChar: h
Encoding: 104 104 38
Width: 449
Flags: W
VStem: 47 50<58.201 83 583.004 607.803> 347 50<58.201 83 583.004 607.803>
LayerCount: 3
Fore
SplineSet
347 307.9921875 m 1
 347 83 l 2
 347 69.2021484375 358.202148438 58 372 58 c 0
 385.797851562 58 397 69.2021484375 397 83 c 2
 397 583.00390625 l 2
 397 596.801757812 385.797851562 608.00390625 372 608.00390625 c 0
 358.202148438 608.00390625 347 596.801757812 347 583.00390625 c 2
 347 357.9921875 l 1
 97 357.9921875 l 1
 97 583.00390625 l 2
 97 596.801757812 85.7978515625 608.00390625 72 608.00390625 c 0
 58.2021484375 608.00390625 47 596.801757812 47 583.00390625 c 2
 47 83 l 2
 47 69.2021484375 58.2021484375 58 72 58 c 0
 85.7978515625 58 97 69.2021484375 97 83 c 2
 97 307.9921875 l 1
 347 307.9921875 l 1
EndSplineSet
EndChar
StartChar: w
Encoding: 119 119 169
Width: 527
Flags: W
LayerCount: 3
Fore
SplineSet
411.006835938 58 m 0
 423.95703125 58 434.620117188 67.8671875 435.881835938 80.4873046875 c 2
 485.881835938 580.491210938 l 2
 487.416992188 595.838867188 475.365234375 608.00390625 461.006835938 608.00390625 c 0
 448.056640625 608.00390625 437.393554688 598.13671875 436.131835938 585.516601562 c 2
 395.780273438 182.001953125 l 1
 283.997070312 442.830078125 l 2
 280.17578125 451.747070312 271.315429688 458 261.006835938 458 c 0
 250.698242188 458 241.837890625 451.747070312 238.016601562 442.830078125 c 2
 126.233398438 182.001953125 l 1
 85.8818359375 585.516601562 l 2
 84.6201171875 598.13671875 73.95703125 608.00390625 61.0068359375 608.00390625 c 0
 46.646484375 608.00390625 34.59765625 595.834960938 36.1318359375 580.491210938 c 2
 86.1318359375 80.4873046875 l 2
 87.3935546875 67.8671875 98.056640625 58 111.006835938 58 c 0
 121.315429688 58 130.17578125 64.2529296875 133.997070312 73.169921875 c 2
 261.006835938 369.526367188 l 1
 388.016601562 73.169921875 l 2
 391.837890625 64.2529296875 400.698242188 58 411.006835938 58 c 0
EndSplineSet
EndChar
StartChar: y
Encoding: 121 121 171
Width: 421
Flags: W
VStem: 184.039 50<58.201 83>
LayerCount: 3
Fore
SplineSet
184.0390625 83 m 2
 184.0390625 69.2021484375 195.241210938 58 209.0390625 58 c 0
 222.836914062 58 234.0390625 69.2021484375 234.0390625 83 c 2
 234.0390625 326.061523438 l 1
 380.493164062 570.168945312 l 2
 390.765625 587.291015625 377.489257812 608.00390625 359.0390625 608.00390625 c 0
 349.932617188 608.00390625 341.95703125 603.124023438 337.5859375 595.83984375 c 2
 209.038085938 381.592773438 l 1
 80.4921875 595.838867188 l 2
 76.12109375 603.124023438 68.1455078125 608.00390625 59.0390625 608.00390625 c 0
 40.5986328125 608.00390625 27.2998046875 587.311523438 37.5859375 570.168945312 c 2
 184.0390625 326.07421875 l 1
 184.0390625 83 l 2
EndSplineSet
EndChar
StartChar: z
Encoding: 122 122 172
Width: 430
Flags: W
HStem: 58 50<363.035 387.834> 558.004 50<38.2362 63.0352>
LayerCount: 3
Fore
SplineSet
63.03515625 608.00390625 m 2
 49.2373046875 608.00390625 38.03515625 596.801757812 38.03515625 583.00390625 c 0
 38.03515625 569.206054688 49.2373046875 558.00390625 63.03515625 558.00390625 c 2
 318.880859375 558.00390625 l 1
 41.58203125 95.8359375 l 2
 31.30859375 78.712890625 44.583984375 58 63.03515625 58 c 2
 363.03515625 58 l 2
 376.833007812 58 388.03515625 69.2021484375 388.03515625 83 c 0
 388.03515625 96.7978515625 376.833007812 108 363.03515625 108 c 2
 107.189453125 108 l 1
 384.48828125 570.16796875 l 2
 394.76171875 587.291015625 381.486328125 608.00390625 363.03515625 608.00390625 c 2
 63.03515625 608.00390625 l 2
EndSplineSet
EndChar
StartChar: braceleft
Encoding: 123 123 242
Width: 259
Flags: W
HStem: -21.375 50<140.728 228.885> 637.375 50<140.918 228.885>
VStem: 90.9609 50<125.399 287.836 373.518 572.25>
LayerCount: 3
Fore
SplineSet
204.0859375 637.375 m 0
 217.883789062 637.375 229.0859375 648.577148438 229.0859375 662.375 c 0
 229.0859375 676.172851562 217.883789062 687.375 204.0859375 687.375 c 0
 180.260742188 687.375 159.64453125 683.754882812 141.956054688 676.376953125 c 0
 119.736328125 667.110351562 102.877929688 651.76953125 91.8916015625 633.5078125 c 0
 60.23046875 580.881835938 73.1474609375 505.2109375 83.5380859375 443.168945312 c 0
 87.6279296875 418.752929688 90.9609375 397.30859375 90.9609375 384.9765625 c 0
 90.9609375 382.454101562 90.8056640625 380.48828125 90.6337890625 379.083007812 c 1
 45.3330078125 355.112304688 l 2
 37.40625 350.91796875 32 342.584960938 32 333 c 0
 32 323.415039062 37.40625 315.08203125 45.3330078125 310.887695312 c 2
 88.8974609375 287.8359375 l 1
 89.458984375 275.260742188 86.013671875 256.092773438 81.8212890625 231.241210938 c 0
 71.181640625 168.170898438 58.0576171875 89.107421875 89.94140625 34.7578125 c 0
 100.995117188 15.916015625 118.008789062 -0.076171875 140.653320312 -9.8037109375 c 0
 158.677734375 -17.546875 179.743164062 -21.375 204.0859375 -21.375 c 0
 217.883789062 -21.375 229.0859375 -10.1728515625 229.0859375 3.625 c 0
 229.0859375 17.4228515625 217.883789062 28.625 204.0859375 28.625 c 0
 140.561523438 28.625 119.913085938 61.203125 119.913085938 123.912109375 c 0
 119.913085938 155.569335938 125.801757812 191.330078125 131.123046875 222.877929688 c 0
 135.126953125 246.608398438 138.94140625 267.555664062 138.94140625 285.817382812 c 0
 138.94140625 305.1015625 133.900390625 320.594726562 118.666992188 328.655273438 c 2
 110.456054688 333 l 1
 118.666992188 337.344726562 l 2
 135.120117188 346.05078125 140.9609375 363.43359375 140.9609375 384.9765625 c 0
 140.9609375 404.599609375 136.967773438 426.890625 132.850585938 451.474609375 c 0
 127.630859375 482.637695312 122.026367188 516.977539062 122.026367188 547.017578125 c 0
 122.026367188 572.25 126.170898438 593.497070312 134.767578125 607.786132812 c 0
 146.92578125 627.99609375 168.865234375 637.375 204.0859375 637.375 c 0
EndSplineSet
EndChar
StartChar: bar
Encoding: 124 124 244
Width: 148
Flags: W
VStem: 49 50<31.744 56.543 609.457 634.256>
LayerCount: 3
Fore
SplineSet
99 609.45703125 m 2
 99 623.254882812 87.7978515625 634.45703125 74 634.45703125 c 0
 60.2021484375 634.45703125 49 623.254882812 49 609.45703125 c 2
 49 56.54296875 l 2
 49 42.7451171875 60.2021484375 31.54296875 74 31.54296875 c 0
 87.7978515625 31.54296875 99 42.7451171875 99 56.54296875 c 2
 99 609.45703125 l 2
EndSplineSet
EndChar
StartChar: male
Encoding: 406 9794 245
Width: 622
Flags: W
HStem: 117.34 50<175.312 303.69> 392.34 50<175.312 305.05> 534.457 50<344.072 368.871>
VStem: 77 50<215.652 344.028> 352 50<215.652 345.496> 493.871 50<384.658 409.457>
LayerCount: 3
Fore
SplineSet
493.87109375 409.45703125 m 2
 493.87109375 395.659179688 505.073242188 384.45703125 518.87109375 384.45703125 c 0
 532.668945312 384.45703125 543.87109375 395.659179688 543.87109375 409.45703125 c 2
 543.87109375 559.45703125 l 2
 543.87109375 573.254882812 532.668945312 584.45703125 518.87109375 584.45703125 c 2
 368.87109375 584.45703125 l 2
 355.073242188 584.45703125 343.87109375 573.254882812 343.87109375 559.45703125 c 0
 343.87109375 545.659179688 355.073242188 534.45703125 368.87109375 534.45703125 c 2
 458.522460938 534.45703125 l 1
 335.223632812 411.158203125 l 1
 308.374023438 430.765625 275.286132812 442.33984375 239.5 442.33984375 c 0
 149.770507812 442.33984375 77 369.569335938 77 279.83984375 c 0
 77 190.110351562 149.770507812 117.33984375 239.5 117.33984375 c 0
 329.233398438 117.33984375 402 190.111328125 402 279.83984375 c 0
 402 315.751953125 390.34375 348.947265625 370.609375 375.84765625 c 1
 493.87109375 499.108398438 l 1
 493.87109375 409.45703125 l 2
352 279.83984375 m 0
 352 217.693359375 301.649414062 167.33984375 239.5 167.33984375 c 0
 177.354492188 167.33984375 127 217.694335938 127 279.83984375 c 0
 127 341.985351562 177.354492188 392.33984375 239.5 392.33984375 c 0
 301.649414062 392.33984375 352 341.986328125 352 279.83984375 c 0
EndSplineSet
LCarets2: 8 0 0 0 0 0 0 0 0
Ligature2: "sitelen pona-1" m i j e hyphen a l t 
EndChar
StartChar: alasa.sp
Encoding: 259 60931 6
Width: 766
Flags: W
HStem: 308 50<65.201 90 445.874 448.034>
VStem: 397.915 50.1191<224.143 308 358 441.857>
LayerCount: 3
Fore
SplineSet
173.8515625 583 m 1025
498.301757812 183 m 0
 498.301757812 169.202148438 509.50390625 158 523.301757812 158 c 0
 530.201171875 158 536.451171875 160.80078125 540.975585938 165.326171875 c 2
 690.975585938 315.326171875 l 2
 700.485351562 324.8359375 700.490234375 341.16015625 690.975585938 350.673828125 c 2
 540.975585938 500.673828125 l 2
 536.451171875 505.19921875 530.201171875 508 523.301757812 508 c 0
 509.50390625 508 498.301757812 496.797851562 498.301757812 483 c 0
 498.301757812 476.100585938 501.102539062 469.850585938 505.627929688 465.326171875 c 2
 612.953125 358 l 1
 448.034179688 358 l 1
 444.836914062 405.916015625 432.4453125 445.51171875 414.0234375 477.75 c 0
 380.4296875 536.538085938 328.2734375 568.762695312 282.422851562 586.206054688 c 0
 223.672851562 608.556640625 175.634765625 608 173.8515625 608 c 2
 148.8515625 608 l 1
 148.8515625 358 l 1
 90 358 l 2
 76.2021484375 358 65 346.797851562 65 333 c 0
 65 319.202148438 76.2021484375 308 90 308 c 2
 148.8515625 308 l 1
 148.8515625 58 l 1
 173.8515625 58 l 1
 173.8515625 58 225.135742188 58 282.422851562 79.7939453125 c 0
 328.2734375 97.2373046875 380.4296875 129.461914062 414.0234375 188.25 c 0
 432.4453125 220.48828125 444.836914062 260.083984375 448.034179688 308 c 1
 612.953125 308 l 1
 505.627929688 200.673828125 l 2
 501.102539062 196.149414062 498.301757812 189.899414062 498.301757812 183 c 0
397.915039062 358 m 1
 198.8515625 358 l 1
 198.8515625 556.060546875 l 1
 215.459960938 553.881835938 238.8984375 549.258789062 264.66796875 539.455078125 c 0
 303.643554688 524.627929688 344.42578125 498.764648438 370.579101562 452.99609375 c 0
 384.620117188 428.424804688 394.869140625 397.517578125 397.915039062 358 c 1
198.8515625 308 m 1
 397.915039062 308 l 1
 394.869140625 268.482421875 384.620117188 237.575195312 370.579101562 213.00390625 c 0
 344.42578125 167.235351562 303.643554688 141.372070312 264.66796875 126.544921875 c 0
 238.8984375 116.741210938 215.459960938 112.118164062 198.8515625 109.939453125 c 1
 198.8515625 308 l 1
EndSplineSet
LCarets2: 5 0 0 0 0 0
Ligature2: "sitelen pona-1" a l a s a 
EndChar
StartChar: ale.sp
Encoding: 260 60932 7
Width: 812
Flags: W
HStem: 188 50<155.994 279.201 532.799 656.006> 428 50<155.994 279.201 532.799 656.006>
VStem: 81 50<264.62 401.38> 681 50<264.62 401.38>
LayerCount: 3
Fore
SplineSet
81 333 m 0
 81 292.756835938 92.2841796875 259.408203125 111.49609375 234.708007812 c 0
 135.565429688 203.76171875 170.783203125 188 206 188 c 0
 259.264648438 188 307.841796875 215.194335938 345.383789062 242.91796875 c 0
 370.926757812 261.780273438 391.94921875 281.622070312 406 296.0234375 c 1
 420.05078125 281.622070312 441.073242188 261.780273438 466.616210938 242.91796875 c 0
 504.158203125 215.194335938 552.735351562 188 606 188 c 0
 641.216796875 188 676.434570312 203.76171875 700.50390625 234.708007812 c 0
 719.715820312 259.408203125 731 292.756835938 731 333 c 0
 731 373.243164062 719.715820312 406.591796875 700.50390625 431.291992188 c 0
 676.434570312 462.23828125 641.216796875 478 606 478 c 0
 552.735351562 478 504.158203125 450.805664062 466.616210938 423.08203125 c 0
 441.073242188 404.219726562 420.05078125 384.377929688 406 369.9765625 c 1
 391.94921875 384.377929688 370.926757812 404.219726562 345.383789062 423.08203125 c 0
 307.841796875 450.805664062 259.264648438 478 206 478 c 0
 170.783203125 478 135.565429688 462.23828125 111.49609375 431.291992188 c 0
 92.2841796875 406.591796875 81 373.243164062 81 333 c 0
131 333 m 0
 131 363.8671875 139.46875 385.828125 150.984375 400.633789062 c 0
 165.32421875 419.0703125 185.661132812 428 206 428 c 0
 241.624023438 428 281.936523438 407.787109375 315.724609375 382.8359375 c 0
 340.053710938 364.869140625 359.794921875 345.927734375 372.239257812 333 c 1
 359.794921875 320.072265625 340.053710938 301.130859375 315.724609375 283.1640625 c 0
 281.936523438 258.212890625 241.624023438 238 206 238 c 0
 185.661132812 238 165.32421875 246.9296875 150.984375 265.366210938 c 0
 139.46875 280.171875 131 302.1328125 131 333 c 0
606 428 m 0
 626.338867188 428 646.67578125 419.0703125 661.015625 400.633789062 c 0
 672.53125 385.828125 681 363.8671875 681 333 c 0
 681 302.1328125 672.53125 280.171875 661.015625 265.366210938 c 0
 646.67578125 246.9296875 626.338867188 238 606 238 c 0
 570.375976562 238 530.063476562 258.212890625 496.275390625 283.1640625 c 0
 471.946289062 301.130859375 452.205078125 320.072265625 439.760742188 333 c 1
 452.205078125 345.927734375 471.946289062 364.869140625 496.275390625 382.8359375 c 0
 530.063476562 407.787109375 570.375976562 428 606 428 c 0
EndSplineSet
Ligature2: "sitelen pona-1" a l i 
Ligature2: "sitelen pona-1" a l e
LCarets2: 3 0 0 0
EndChar
StartChar: anpa.sp
Encoding: 261 60933 8
Width: 733
Flags: W
HStem: 39.875 100<326.225 407.775>
VStem: 92 50<509.457 534.256> 317 100<49.1 130.65> 592 50<509.457 534.256>
CounterMasks: 1 70
LayerCount: 3
Fore
SplineSet
417 89.875 m 1024
417 89.875 m 0
 417 62.26171875 394.61328125 39.875 367 39.875 c 0
 339.38671875 39.875 317 62.26171875 317 89.875 c 0
 317 117.48828125 339.38671875 139.875 367 139.875 c 0
 394.61328125 139.875 417 117.48828125 417 89.875 c 0
592 284.45703125 m 1
 142 284.45703125 l 1
 142 509.45703125 l 2
 142 523.254882812 130.797851562 534.45703125 117 534.45703125 c 0
 103.202148438 534.45703125 92 523.254882812 92 509.45703125 c 2
 92 259.45703125 l 2
 92 245.659179688 103.202148438 234.45703125 117 234.45703125 c 2
 617 234.45703125 l 2
 630.797851562 234.45703125 642 245.659179688 642 259.45703125 c 2
 642 509.45703125 l 2
 642 523.254882812 630.797851562 534.45703125 617 534.45703125 c 0
 603.202148438 534.45703125 592 523.254882812 592 509.45703125 c 2
 592 284.45703125 l 1
EndSplineSet
LCarets2: 4 0 0 0 0
Ligature2: "sitelen pona-1" a n p a 
EndChar
StartChar: ante.sp
Encoding: 262 60934 9
Width: 681
Flags: W
LayerCount: 3
Fore
SplineSet
91 608 m 0
 77.2021484375 608 66 596.797851562 66 583 c 0
 66 574.818359375 69.9384765625 567.549804688 76.021484375 562.98828125 c 2
 326.021484375 375.48828125 l 2
 334.653320312 369.013671875 347.344726562 369.01171875 355.978515625 375.48828125 c 2
 605.978515625 562.98828125 l 2
 612.061523438 567.549804688 616 574.818359375 616 583 c 0
 616 596.797851562 604.797851562 608 591 608 c 0
 585.383789062 608 580.197265625 606.143554688 576.021484375 603.01171875 c 2
 341 426.74609375 l 1
 105.978515625 603.01171875 l 2
 101.802734375 606.143554688 96.6162109375 608 91 608 c 0
66 83 m 0
 66 69.2021484375 77.2021484375 58 91 58 c 0
 96.6162109375 58 101.802734375 59.8564453125 105.978515625 62.98828125 c 2
 341 239.25390625 l 1
 576.021484375 62.98828125 l 2
 580.197265625 59.8564453125 585.383789062 58 591 58 c 0
 604.797851562 58 616 69.2021484375 616 83 c 0
 616 91.181640625 612.061523438 98.4501953125 605.978515625 103.01171875 c 2
 355.978515625 290.51171875 l 2
 347.346679688 296.986328125 334.655273438 296.98828125 326.021484375 290.51171875 c 2
 76.021484375 103.01171875 l 2
 69.9384765625 98.4501953125 66 91.181640625 66 83 c 0
EndSplineSet
Ligature2: "sitelen pona-1" a n t e
EndChar
StartChar: awen.sp
Encoding: 264 60936 11
Width: 776
Flags: W
HStem: 58 50<56.201 81 694.301 719.1>
LayerCount: 3
Fore
SplineSet
544.30078125 58 m 2
 694.30078125 58 l 2
 708.098632812 58 719.30078125 69.2021484375 719.30078125 83 c 0
 719.30078125 96.7978515625 708.098632812 108 694.30078125 108 c 2
 562.264648438 108 l 1
 411.350585938 555.9765625 l 2
 408.018554688 565.868164062 398.662109375 573 387.65234375 573 c 0
 376.642578125 573 367.286132812 565.868164062 363.954101562 555.9765625 c 2
 213.036132812 108 l 1
 81 108 l 2
 67.2021484375 108 56 96.7978515625 56 83 c 0
 56 69.2021484375 67.2021484375 58 81 58 c 2
 231 58 l 2
 242.009765625 58 251.366210938 65.1318359375 254.698242188 75.0234375 c 2
 387.65234375 469.677734375 l 1
 520.602539062 75.0234375 l 2
 523.934570312 65.1318359375 533.291015625 58 544.30078125 58 c 2
EndSplineSet
Ligature2: "sitelen pona-1" a w e n 
EndChar
StartChar: en.sp
Encoding: 266 60938 40
Width: 691
Flags: W
HStem: 308 50<96.201 121 571 595.799>
VStem: 321 50<83.201 108 558 582.799>
LayerCount: 3
Fore
SplineSet
121 358 m 2
 107.202148438 358 96 346.797851562 96 333 c 0
 96 319.202148438 107.202148438 308 121 308 c 2
 321 308 l 1
 321 108 l 2
 321 94.2021484375 332.202148438 83 346 83 c 0
 359.797851562 83 371 94.2021484375 371 108 c 2
 371 308 l 1
 571 308 l 2
 584.797851562 308 596 319.202148438 596 333 c 0
 596 346.797851562 584.797851562 358 571 358 c 2
 371 358 l 1
 371 558 l 2
 371 571.797851562 359.797851562 583 346 583 c 0
 332.202148438 583 321 571.797851562 321 558 c 2
 321 358 l 1
 121 358 l 2
EndSplineSet
Ligature2: "sitelen pona-1" e n
EndChar
StartChar: ike.sp
Encoding: 269 60941 43
Width: 698
Flags: W
HStem: 413.832 50<247.263 450.757>
LayerCount: 3
Fore
SplineSet
74.1708984375 226.6875 m 0
 72.4033203125 211.161132812 84.5673828125 198.83203125 99.009765625 198.83203125 c 0
 111.841796875 198.83203125 122.4296875 208.521484375 123.848632812 220.9765625 c 1
 123.848632812 220.9765625 145.26953125 413.83203125 349.009765625 413.83203125 c 0
 552.75 413.83203125 574.170898438 220.9765625 574.170898438 220.9765625 c 1
 575.58984375 208.521484375 586.177734375 198.83203125 599.009765625 198.83203125 c 0
 613.454101562 198.83203125 625.616210938 211.166015625 623.848632812 226.6875 c 0
 623.821289062 226.924804688 596.3125 463.83203125 349.009765625 463.83203125 c 0
 101.70703125 463.83203125 74.1982421875 226.924804688 74.1708984375 226.6875 c 0
EndSplineSet
Ligature2: "sitelen pona-1" i k e 
EndChar
StartChar: insa.sp
Encoding: 271 60943 45
Width: 733
Flags: W
HStem: 283 100<325.225 406.775>
VStem: 91 50<433 457.799> 316 100<292.225 373.775> 591 50<433 457.799>
CounterMasks: 1 70
LayerCount: 3
Fore
SplineSet
416 333 m 1024
416 333 m 0
 416 305.38671875 393.61328125 283 366 283 c 0
 338.38671875 283 316 305.38671875 316 333 c 0
 316 360.61328125 338.38671875 383 366 383 c 0
 393.61328125 383 416 360.61328125 416 333 c 0
591 208 m 1
 141 208 l 1
 141 433 l 2
 141 446.797851562 129.797851562 458 116 458 c 0
 102.202148438 458 91 446.797851562 91 433 c 2
 91 183 l 2
 91 169.202148438 102.202148438 158 116 158 c 2
 616 158 l 2
 629.797851562 158 641 169.202148438 641 183 c 2
 641 433 l 2
 641 446.797851562 629.797851562 458 616 458 c 0
 602.202148438 458 591 446.797851562 591 433 c 2
 591 208 l 1
EndSplineSet
Ligature2: "sitelen pona-1" i n s a 
EndChar
StartChar: jelo.sp
Encoding: 274 60946 48
Width: 574
Flags: W
HStem: 408 50<62.1976 87 164.504 170.35 403.65 409.496 487 511.802>
VStem: 262 50<310.504 316.35 549.65 555.496 641 665.802>
LayerCount: 3
Fore
SplineSet
387 433 m 1025
312 641 m 2
 312 655 301 666 287 666 c 0
 273 666 262 655 262 641 c 2
 262 555.49609375 l 1
 213.044921875 545.545898438 174.454101562 506.955078125 164.50390625 458 c 1
 87 458 l 2
 73 458 62 447 62 433 c 0
 62 419 73 408 87 408 c 2
 164.50390625 408 l 1
 174.454101562 359.044921875 213.044921875 320.454101562 262 310.50390625 c 1
 262 266 l 1
 117 66 l 2
 114 62 112 56 112 51 c 0
 112 37 123 26 137 26 c 2
 437 26 l 2
 451 26 462 37 462 51 c 0
 462 56 460 62 457 66 c 2
 312 266 l 1
 312 310.50390625 l 1
 360.955078125 320.454101562 399.545898438 359.044921875 409.49609375 408 c 1
 487 408 l 2
 501 408 512 419 512 433 c 0
 512 447 501 458 487 458 c 2
 409.49609375 458 l 1
 399.545898438 506.955078125 360.955078125 545.545898438 312 555.49609375 c 1
 312 641 l 2
362 433 m 0
 362 392 328 358 287 358 c 0
 246 358 212 392 212 433 c 0
 212 474 246 508 287 508 c 0
 328 508 362 474 362 433 c 0
186 76 m 1
 287 214 l 1
 388 76 l 1
 186 76 l 1
EndSplineSet
LCarets2: 4 0 0 0 0
Ligature2: "sitelen pona-1" j e l o 
EndChar
StartChar: kala.sp
Encoding: 276 60948 50
Width: 827
Flags: W
HStem: 181.985 49.9902<483.954 664.48> 434.047 49.9902<483.949 664.475>
VStem: 80 39.75<208.641 212.818 453.183 457.359>
LayerCount: 3
Fore
SplineSet
80 233 m 0
 80 241.283203125 84.037109375 248.630859375 90.25 253.181640625 c 0
 90.640625 253.467773438 139.77734375 289.481445312 210.694335938 333.004882812 c 1
 139.778320312 376.522460938 90.6416015625 412.53125 90.2509765625 412.817382812 c 0
 84.0380859375 417.368164062 80 424.715820312 80 433 c 0
 80 446.797851562 91.2021484375 458 105 458 c 0
 110.513671875 458 115.61328125 456.2109375 119.749023438 453.182617188 c 2
 119.749023438 453.182617188 178.336914062 410.25 259.418945312 361.970703125 c 1
 322.890625 398.456054688 396.794921875 436.041992188 467.780273438 459.778320312 c 0
 511.685546875 474.458984375 554.627929688 484.037109375 594.473632812 484.037109375 c 0
 628.8515625 484.037109375 661.635742188 476.751953125 688.530273438 457.196289062 c 0
 722.62109375 432.407226562 742.380859375 390.900390625 746.58203125 334.892578125 c 0
 746.674804688 333.646484375 746.674804688 332.353515625 746.58203125 331.107421875 c 0
 742.380859375 275.107421875 722.62109375 233.606445312 688.53125 208.822265625 c 0
 661.63671875 189.268554688 628.85546875 181.985351562 594.479492188 181.985351562 c 0
 554.633789062 181.985351562 511.69140625 191.5625 467.786132812 206.241210938 c 0
 396.799804688 229.975585938 322.893554688 267.55859375 259.420898438 304.041015625 c 1
 178.337890625 255.755859375 119.75 212.818359375 119.75 212.818359375 c 2
 115.614257812 209.7890625 110.514648438 208 105 208 c 0
 91.2021484375 208 80 219.202148438 80 233 c 0
594.473632812 434.046875 m 0
 562.670898438 434.046875 524.588867188 426.047851562 483.690429688 412.373046875 c 0
 426.65625 393.30078125 365.373046875 363.649414062 309.880859375 333.006835938 c 1
 365.374023438 302.3671875 426.659179688 272.717773438 483.6953125 253.647460938 c 0
 524.594726562 239.973632812 562.67578125 231.975585938 594.479492188 231.975585938 c 0
 627.21875 231.975585938 651.291992188 240.198242188 667.564453125 256.471679688 c 0
 681.790039062 270.696289062 693.397460938 294.630859375 696.584960938 333.001953125 c 1
 693.399414062 371.397460938 681.790039062 395.319335938 667.557617188 409.551757812 c 0
 651.286132812 425.823242188 627.2109375 434.046875 594.473632812 434.046875 c 0
EndSplineSet
Ligature2: "sitelen pona-1" k a l a 
EndChar
StartChar: kalama.sp
Encoding: 277 60949 51
Width: 701
Flags: W
HStem: 93 50<249.483 452.537>
VStem: 326.01 50<408.201 433 583 607.799>
LayerCount: 3
Fore
SplineSet
601.009765625 358 m 2
 101.009765625 358 l 2
 86.5654296875 358 74.4033203125 345.666015625 76.1708984375 330.14453125 c 0
 76.1982421875 329.907226562 103.70703125 93 351.009765625 93 c 0
 598.3125 93 625.821289062 329.907226562 625.848632812 330.14453125 c 0
 627.616210938 345.670898438 615.452148438 358 601.009765625 358 c 2
351.009765625 143 m 0
 196.033203125 143 146.546875 254.584960938 131.735351562 308 c 1
 570.284179688 308 l 1
 555.47265625 254.584960938 505.986328125 143 351.009765625 143 c 0
326.009765625 433 m 2
 326.009765625 419.202148438 337.211914062 408 351.009765625 408 c 0
 364.807617188 408 376.009765625 419.202148438 376.009765625 433 c 2
 376.009765625 583 l 2
 376.009765625 596.797851562 364.807617188 608 351.009765625 608 c 0
 337.211914062 608 326.009765625 596.797851562 326.009765625 583 c 2
 326.009765625 433 l 2
482.053710938 445.52734375 m 2
 472.13671875 428.350585938 485.48046875 408.0546875 503.720703125 408.0546875 c 0
 512.977539062 408.0546875 521.065429688 413.096679688 525.387695312 420.58203125 c 2
 600.387695312 550.48828125 l 2
 610.3046875 567.665039062 596.9609375 587.9609375 578.720703125 587.9609375 c 0
 569.463867188 587.9609375 561.375976562 582.918945312 557.053710938 575.43359375 c 2
 482.053710938 445.52734375 l 2
198.299804688 408.0546875 m 0
 216.53125 408.0546875 229.89453125 428.331054688 219.966796875 445.52734375 c 2
 144.966796875 575.43359375 l 2
 140.64453125 582.918945312 132.556640625 587.9609375 123.299804688 587.9609375 c 0
 105.068359375 587.9609375 91.705078125 567.684570312 101.6328125 550.48828125 c 2
 176.6328125 420.58203125 l 2
 180.955078125 413.096679688 189.04296875 408.0546875 198.299804688 408.0546875 c 0
EndSplineSet
Ligature2: "sitelen pona-1" k a l a m a 
EndChar
StartChar: kili.sp
Encoding: 282 60954 56
Width: 708
Flags: W
HStem: 93 50<254.588 453.414> 465.812 50<155.505 286.475 421.528 552.497>
VStem: 79 50<269.837 438.384> 329.002 50<583 607.799> 579.001 50<269.837 438.384>
LayerCount: 3
Fore
SplineSet
379.001953125 583 m 2
 379.001953125 596.797851562 367.799804688 608 354.001953125 608 c 0
 340.204101562 608 329.001953125 596.797851562 329.001953125 583 c 2
 329.001953125 478.510742188 l 1
 284.3984375 503.90625 244.697265625 515.8125 209.340820312 515.8125 c 0
 162.022460938 515.8125 125.111328125 492.921875 103.568359375 458.310546875 c 0
 86.5859375 431.02734375 79 397.809570312 79 363 c 0
 79 244.0546875 171.125 93 354.001953125 93 c 0
 536.876953125 93 629.000976562 244.0546875 629.000976562 363 c 0
 629.000976562 397.809570312 621.415039062 431.02734375 604.43359375 458.310546875 c 0
 582.889648438 492.921875 545.979492188 515.8125 498.661132812 515.8125 c 0
 463.305664062 515.8125 423.604492188 503.90625 379.001953125 478.510742188 c 1
 379.001953125 583 l 2
498.661132812 465.8125 m 0
 529.372070312 465.8125 548.81640625 453.046875 561.953125 431.942382812 c 0
 572.71484375 414.65234375 579.000976562 390.45703125 579.000976562 363 c 0
 579.000976562 266.111328125 504.458984375 143 354.001953125 143 c 0
 203.54296875 143 129 266.111328125 129 363 c 0
 129 390.45703125 135.286132812 414.65234375 146.047851562 431.942382812 c 0
 159.184570312 453.046875 178.62890625 465.8125 209.340820312 465.8125 c 0
 239.837890625 465.8125 283.6796875 451.7109375 339.689453125 412.504882812 c 0
 348.04296875 406.658203125 359.958984375 406.65625 368.314453125 412.504882812 c 0
 424.323242188 451.7109375 468.165039062 465.8125 498.661132812 465.8125 c 0
EndSplineSet
Ligature2: "sitelen pona-1" k i l i 
EndChar
StartChar: kiwen.sp
Encoding: 283 60955 57
Width: 688
Flags: W
LayerCount: 3
Fore
SplineSet
327.711914062 99.0390625 m 2
 336.827148438 91.2001953125 351.16796875 91.197265625 360.287109375 99.0400390625 c 2
 610.283203125 314.040039062 l 2
 617.989257812 320.666992188 621.74609375 332.62109375 616.676757812 343.521484375 c 2
 516.676757812 558.521484375 l 2
 512.701171875 567.068359375 504.03515625 573 493.995117188 573 c 2
 193.995117188 573 l 2
 183.955078125 573 175.2890625 567.068359375 171.313476562 558.521484375 c 2
 71.3134765625 343.521484375 l 2
 66.248046875 332.629882812 70.00390625 320.665039062 77.7080078125 314.0390625 c 2
 327.711914062 99.0390625 l 2
563.345703125 339.609375 m 1
 343.999023438 150.967773438 l 1
 124.64453125 339.609375 l 1
 209.942382812 523 l 1
 478.047851562 523 l 1
 563.345703125 339.609375 l 1
EndSplineSet
LCarets2: 5 0 0 0 0 0
Ligature2: "sitelen pona-1" k i w e n 
EndChar
StartChar: ko.sp
Encoding: 284 60956 58
Width: 709
Flags: W
HStem: 56.8408 50<246.52 317.646> 115.167 50<489.245 571.184> 154.093 50<393.525 483.602> 495.929 50.0283<399.332 506.372> 523.842 50<470.19 578.639>
VStem: 195.658 50<109.592 210.697> 210.243 50<135.356 237.742> 513.384 49.9658<285.805 373.724> 572.912 50<168.716 245.489> 585.185 50<428.677 519.493>
LayerCount: 3
Fore
SplineSet
73.5146484375 359.375 m 0x9140
 67.193359375 332.08203125 73.119140625 307.953125 87.578125 290.659179688 c 0
 105.383789062 269.36328125 133.143554688 259.08203125 159.846679688 249.260742188 c 0
 174.625 243.825195312 187.973632812 238.686523438 196.592773438 233.5078125 c 0
 203.615234375 229.288085938 206.599609375 225.741210938 207.759765625 223.341796875 c 0
 209.474609375 219.797851562 210.243164062 216.130859375 210.243164062 211.30078125 c 0x9340
 210.243164062 203.271484375 207.456054688 192.026367188 203.750976562 178.896484375 c 0
 200.166015625 166.196289062 195.658203125 151.704101562 195.658203125 134.794921875 c 0
 195.658203125 101.490234375 215.041992188 80.982421875 239.284179688 67.7763671875 c 0
 252.48046875 60.587890625 266.166992188 56.8408203125 279.698242188 56.8408203125 c 0
 298.528320312 56.8408203125 314.694335938 63.9013671875 328.088867188 72.7626953125 c 0
 344.896484375 83.8828125 358.56640625 98.181640625 371.51953125 111.391601562 c 0
 391.334960938 131.59765625 408.8984375 147.791015625 423.969726562 152.540039062 c 0
 427.559570312 153.671875 430.684570312 154.092773438 433.729492188 154.092773438 c 0xb5
 444.375 154.092773438 457.37890625 147.700195312 474.760742188 137.577148438 c 0
 490.74609375 128.266601562 510.995117188 115.166992188 537.7578125 115.166992188 c 0
 559.986328125 115.166992188 581.97265625 125.498046875 602.415039062 145.825195312 c 0
 616.307617188 159.638671875 622.912109375 177.193359375 622.912109375 194.256835938 c 0xc580
 622.912109375 209.274414062 618.602539062 222.763671875 613.176757812 235.2109375 c 0
 601.318359375 262.416992188 580.241210938 289.716796875 568.952148438 314.938476562 c 0
 565.11328125 323.514648438 563.349609375 330.15625 563.349609375 334.794921875 c 0
 563.349609375 337.950195312 564.590820312 343.0859375 568.372070312 350.12890625 c 0
 573.048828125 358.83984375 581.185546875 369.6328125 590.448242188 381.62109375 c 0
 601.045898438 395.3359375 613.109375 410.674804688 622.288085938 428.755859375 c 0
 629.616210938 443.19140625 635.184570312 459.771484375 635.184570312 478.407226562 c 0
 635.184570312 494.051757812 631.1015625 510.232421875 622.495117188 526.028320312 c 0
 607.495117188 553.559570312 583.658203125 573.841796875 545.803710938 573.841796875 c 0xc940
 507.826171875 573.841796875 478.786132812 556.125 449.630859375 547.936523438 c 0
 443.950195312 546.340820312 440.448242188 545.719726562 438.11328125 545.95703125 c 0
 436.94921875 546.075195312 432.7890625 547.206054688 426.994140625 550.217773438 c 0
 419.809570312 553.952148438 410.487304688 560.087890625 400.024414062 567.079101562 c 0
 385.284179688 576.9296875 368.208984375 588.490234375 348.702148438 597.224609375 c 0
 333.122070312 604.201171875 315.665039062 609.501953125 296.4296875 609.501953125 c 0
 258.278320312 609.501953125 224.020507812 586.553710938 210.885742188 563.331054688 c 0
 190.228515625 526.806640625 208.875976562 493.334960938 188.764648438 461.352539062 c 0
 180.052734375 447.497070312 171.03125 445.017578125 152.069335938 439.817382812 c 0
 138.51953125 436.1015625 119.182617188 431.390625 102.330078125 415.291015625 c 0
 88.818359375 402.383789062 79.21484375 383.986328125 73.5146484375 359.375 c 0x9140
276.262695312 555.221679688 m 0
 294.3203125 563.139648438 310.04296875 559.745117188 328.309570312 551.565429688 c 0
 353.477539062 540.295898438 379.012695312 518.801757812 403.986328125 505.822265625 c 0
 414.040039062 500.596679688 424.515625 495.928710938 438.807617188 495.928710938 c 0xb3
 447.666992188 495.928710938 455.526367188 497.647460938 463.161132812 499.791992188 c 0
 486.896484375 506.458007812 523.4296875 523.841796875 545.803710938 523.841796875 c 0
 552.086914062 523.841796875 557.08203125 522.756835938 561.448242188 520.590820312 c 0
 566.788085938 517.943359375 572.526367188 513.23046875 578.557617188 502.159179688 c 0
 583.583007812 492.936523438 585.184570312 485.3984375 585.184570312 478.407226562 c 0x8b40
 585.184570312 470.055664062 582.672851562 461.186523438 577.673828125 451.338867188 c 0
 564.662109375 425.70703125 538.731445312 400.62890625 524.2890625 373.727539062 c 0
 518.005859375 362.025390625 512.860351562 348.733398438 513.383789062 332.69140625 c 0
 513.83984375 318.696289062 518.080078125 306.190429688 523.290039062 294.55078125 c 0
 535.165039062 268.021484375 556.446289062 240.2109375 567.317382812 215.270507812 c 0
 571.211914062 206.334960938 572.912109375 198.993164062 572.912109375 194.256835938 c 0
 572.912109375 189.26171875 572.022460938 186.1015625 567.168945312 181.274414062 c 0
 552.970703125 167.15625 544.229492188 165.166992188 537.7578125 165.166992188 c 0xc980
 528.982421875 165.166992188 516.799804688 170.955078125 499.87109375 180.814453125 c 0
 483.346679688 190.439453125 461.93359375 204.092773438 433.729492188 204.092773438 c 0
 425.65234375 204.092773438 417.291992188 202.870117188 408.942382812 200.239257812 c 0
 377.110351562 190.20703125 354.974609375 165.916992188 335.825195312 146.389648438 c 0
 322.853515625 133.162109375 310.922851562 121.354492188 300.55078125 114.4921875 c 0
 292.200195312 108.967773438 285.610351562 106.840820312 279.698242188 106.840820312 c 0
 275.395507812 106.840820312 270.216796875 107.866210938 263.151367188 111.715820312 c 0
 253.068359375 117.208007812 249.462890625 121.774414062 247.7578125 125.001953125 c 0
 246.356445312 127.65625 245.658203125 130.484375 245.658203125 134.794921875 c 0xa580
 245.658203125 141.788085938 248.262695312 152.494140625 251.877929688 165.305664062 c 0
 255.5546875 178.331054688 260.243164062 193.572265625 260.243164062 211.30078125 c 0
 260.243164062 222.083984375 258.265625 233.764648438 252.80078125 245.064453125 c 0
 233.0625 285.865234375 179.720703125 290.6484375 142.008789062 310.783203125 c 0
 134.401367188 314.844726562 129.053710938 318.990234375 125.952148438 322.700195312 c 0
 120.659179688 329.03125 119.75 337.366210938 122.227539062 348.064453125 c 0
 126.48828125 366.45703125 132.116210938 374.610351562 136.85546875 379.137695312 c 0
 142.814453125 384.831054688 151.006835938 387.669921875 165.306640625 391.591796875 c 0
 183.415039062 396.557617188 212.053710938 404.465820312 231.122070312 434.787109375 c 0
 248.295898438 462.092773438 248.895507812 489.112304688 249.50390625 507.837890625 c 0
 250.018554688 523.6640625 251.087890625 532.84375 254.439453125 538.76953125 c 0
 256.990234375 543.279296875 261.748046875 548.856445312 276.262695312 555.221679688 c 0
EndSplineSet
Ligature2: "sitelen pona-1" k o 
EndChar
StartChar: kute.sp
Encoding: 288 60960 62
Width: 546
Flags: W
HStem: 580.802 50<227.439 342.834>
VStem: 419.04 50<310.781 489.223>
LayerCount: 3
Fore
SplineSet
66.935546875 444.630859375 m 0
 57.8046875 427.305664062 71.3115234375 408 89.0673828125 408 c 0
 98.6669921875 408 107.010742188 413.422851562 111.19921875 421.369140625 c 2
 111.19921875 421.369140625 137.640625 471.666015625 179.083007812 516.852539062 c 0
 212.4140625 553.194335938 252.032226562 580.801757812 287.995117188 580.801757812 c 0
 311.887695312 580.801757812 339.059570312 570.0234375 369.6328125 532.280273438 c 0
 405.41015625 488.115234375 419.040039062 445.25 419.040039062 403.670898438 c 0
 419.040039062 333.021484375 377.76953125 261.396484375 321.770507812 200.020507812 c 0
 252.234375 123.80859375 162.049804688 65.783203125 121.43359375 47.4716796875 c 0
 112.744140625 43.5537109375 106.688476562 34.8125 106.688476562 24.66796875 c 0
 106.688476562 7.6103515625 124.553710938 -5.9755859375 141.943359375 1.8642578125 c 0
 190.609375 23.8046875 283.315429688 83.705078125 358.7109375 166.338867188 c 0
 418.657226562 232.041015625 469.040039062 313.681640625 469.040039062 403.670898438 c 0
 469.040039062 457.03125 450.657226562 511.680664062 408.501953125 563.719726562 c 0
 371.379882812 609.546875 329.771484375 630.801757812 287.995117188 630.801757812 c 0
 228.088867188 630.801757812 178.466796875 590.141601562 142.23046875 550.629882812 c 0
 96.1513671875 500.388671875 67.470703125 445.645507812 66.935546875 444.630859375 c 0
177.172851562 285.9296875 m 0
 177.172851562 272.131835938 188.375 260.9296875 202.172851562 260.9296875 c 0
 208.705078125 260.9296875 214.655273438 263.440429688 219.110351562 267.548828125 c 0
 223.243164062 271.358398438 227.759765625 275.170898438 232.665039062 279.299804688 c 0
 251.08984375 294.806640625 274.7890625 315.122070312 294.708007812 353.909179688 c 0
 303.61328125 371.250976562 290.0859375 390.3046875 272.454101562 390.3046875 c 0
 262.759765625 390.3046875 254.346679688 384.775390625 250.200195312 376.700195312 c 0
 229.967773438 337.302734375 210.875 327.952148438 185.235351562 304.310546875 c 0
 180.279296875 299.741210938 177.172851562 293.1953125 177.172851562 285.9296875 c 0
EndSplineSet
Ligature2: "sitelen pona-1" k u t e 
EndChar
StartChar: laso.sp
Encoding: 290 60962 64
Width: 662
Flags: W
HStem: 26 50<223 425> 292 50<132.861 275.544> 365 50<359.313 461.514> 561 50<428.416 545.745>
VStem: 70 50<363.865 419.558> 550 50<489.644 555.518>
LayerCount: 3
Fore
SplineSet
359 417 m 1
 367 416 376 415 384 415 c 0
 447 415 518 463 543 512 c 0
 548 523 550 532 550 538 c 0
 550 545 549 549 542 553 c 0
 536 557 523 561 502 561 c 0
 453 561 423 542 400 512 c 0
 381 487 367 453 359 417 c 1
349 266 m 1
 494 66 l 2
 496.934570312 61.9521484375 499 56 499 51 c 0
 499 37 488 26 474 26 c 2
 174 26 l 2
 160 26 149 37 149 51 c 0
 149 56 151.065429688 61.9521484375 154 66 c 2
 299 266 l 1
 298 275 295 307 293 317 c 1
 259 300 226 292 196 292 c 0
 149 292 110 311 88 340 c 0
 77 355 70 371 70 390 c 0
 70 433 105 468 163 482 c 0
 176 485 189 487 201 487 c 0
 252 487 288 458 309 422 c 1
 330 520 383 611 502 611 c 0
 528 611 549 607 566 597 c 0
 588 584 600 561 600 538 c 0
 600 521 595 505 587 490 c 0
 577 471 562 451 544 434 c 0
 504 396 446 365 384 365 c 0
 373 365 362 366 351 368 c 1
 348 340 349 289 349 266 c 1
264 400 m 0
 244 431 217 443 175 433 c 0
 129 422 120 401 120 390 c 0
 120 384 122 377 127 370 c 0
 138 356 162 342 196 342 c 0
 219 342 248 348 280 366 c 1
 276 378 270 390 264 400 c 0
223 76 m 1
 425 76 l 1
 324 214 l 1
 223 76 l 1
EndSplineSet
LCarets2: 4 0 0 0 0
Ligature2: "sitelen pona-1" l a s o 
EndChar
StartChar: lawa.sp
Encoding: 291 60963 65
Width: 692
Flags: W
HStem: 58 50<222.208 355.636> 408 50<603.82 628.619> 558 50<222.208 355.636>
VStem: 82 50<220.078 405.643> 445.844 50<220.078 406.891>
LayerCount: 3
Fore
SplineSet
603.8203125 408 m 2
 617.618164062 408 628.8203125 419.202148438 628.8203125 433 c 0
 628.8203125 446.797851562 617.618164062 458 603.8203125 458 c 2
 473.556640625 458 l 1
 456.330078125 503.177734375 429.803710938 541.4609375 396.400390625 568.350585938 c 0
 365.682617188 593.078125 328.810546875 608 288.921875 608 c 0
 249.033203125 608 212.161132812 593.078125 181.443359375 568.350585938 c 0
 120.142578125 519.00390625 82 431.28515625 82 333 c 0
 82 234.71484375 120.142578125 146.99609375 181.443359375 97.6494140625 c 0
 212.161132812 72.921875 249.033203125 58 288.921875 58 c 0
 328.810546875 58 365.682617188 72.921875 396.400390625 97.6494140625 c 0
 457.701171875 146.99609375 495.84375 234.71484375 495.84375 333 c 0
 495.84375 358.903320312 493.194335938 384.073242188 488.169921875 408 c 1
 603.8203125 408 l 2
288.921875 558 m 0
 316.014648438 558 341.896484375 548.047851562 365.08203125 529.384765625 c 0
 386.307617188 512.296875 404.982421875 487.772460938 419.012695312 458 c 1
 158.831054688 458 l 1
 172.861328125 487.772460938 191.53515625 512.296875 212.76171875 529.384765625 c 0
 235.946289062 548.047851562 261.829101562 558 288.921875 558 c 0
445.84375 333 m 0
 445.84375 247.19140625 411.586914062 174.052734375 365.08203125 136.615234375 c 0
 341.897460938 117.952148438 316.014648438 108 288.921875 108 c 0
 261.829101562 108 235.946289062 117.952148438 212.76171875 136.615234375 c 0
 166.256835938 174.052734375 132 247.19140625 132 333 c 0
 132 359.458007812 135.256835938 384.7109375 141.125 408.084960938 c 0
 141.807617188 408.028320312 142.498046875 408 143.1953125 408 c 2
 436.739257812 408 l 1
 442.594726562 384.650390625 445.84375 359.42578125 445.84375 333 c 0
EndSplineSet
LCarets2: 4 0 0 0 0
Ligature2: "sitelen pona-1" l a w a 
EndChar
StartChar: lupa.sp
Encoding: 302 60974 76
Width: 632
Flags: W
HStem: 58 50<244.435 389.73>
VStem: 88 50<277.675 606.838> 496.162 50<277.66 606.838>
LayerCount: 3
Fore
SplineSet
138 483.892578125 m 0
 138 544.712890625 142.080078125 579.041992188 142.080078125 583 c 0
 142.080078125 596.797851562 130.877929688 608 117.080078125 608 c 0
 104.129882812 608 93.466796875 598.1328125 92.205078125 585.512695312 c 0
 92.1455078125 584.919921875 88 543.372070312 88 483.892578125 c 0
 88 428.795898438 91.49609375 358.362304688 105.491210938 290.3828125 c 0
 116.67578125 236.052734375 134.46875 182.86328125 164.311523438 140.229492188 c 0
 198.096679688 91.9609375 248.661132812 58 317.083984375 58 c 0
 385.50390625 58 436.06640625 91.9580078125 469.8515625 140.223632812 c 0
 499.692382812 182.854492188 517.485351562 236.040039062 528.670898438 290.3671875 c 0
 542.665039062 358.34375 546.162109375 428.775390625 546.162109375 483.873046875 c 0
 546.162109375 543.36328125 542.014648438 584.919921875 541.955078125 585.512695312 c 0
 540.693359375 598.1328125 530.030273438 608 517.080078125 608 c 0
 503.282226562 608 492.080078125 596.797851562 492.080078125 583 c 0
 492.080078125 578.956054688 496.162109375 544.786132812 496.162109375 483.873046875 c 0
 496.162109375 430.990234375 492.659179688 363.448242188 479.697265625 300.486328125 c 0
 469.315429688 250.063476562 452.76953125 203.002929688 428.861328125 168.848632812 c 0
 402.1796875 130.73046875 367.709960938 108 317.083984375 108 c 0
 266.456054688 108 231.984375 130.732421875 205.301757812 168.853515625 c 0
 181.392578125 203.010742188 164.845703125 250.075195312 154.46484375 300.501953125 c 0
 141.501953125 363.466796875 138 431.010742188 138 483.892578125 c 0
EndSplineSet
Ligature2: "sitelen pona-1" l u p a 
EndChar
StartChar: meli.sp
Encoding: 306 60978 80
Width: 831
Flags: W
HStem: 71.5498 50<331.685 497.602> 471.55 50<331.685 497.602> 581.543 50<293.864 535.42>
VStem: 115.492 48.3027<28.7665 148.398> 189.644 50<213.591 379.509> 589.644 50<213.591 379.509> 665.492 48.3027<28.7665 148.699>
LayerCount: 3
Fore
SplineSet
139.643554688 28.625 m 0
 155.155273438 28.625 168.325195312 43.1943359375 163.794921875 60.103515625 c 0
 143.611328125 135.428710938 133.775390625 205.116210938 133.775390625 267.02734375 c 0
 133.775390625 355.034179688 153.649414062 427.018554688 190.38671875 479.110351562 c 0
 235.892578125 543.635742188 308.930664062 581.54296875 414.643554688 581.54296875 c 0
 520.384765625 581.54296875 593.501953125 543.954101562 639.041015625 479.7578125 c 0
 675.8046875 427.932617188 695.732421875 356.188476562 695.732421875 268.109375 c 0
 695.732421875 206.0390625 685.833007812 136.012695312 665.4921875 60.103515625 c 0
 660.962890625 43.197265625 674.133789062 28.625 689.643554688 28.625 c 0
 701.201171875 28.625 710.9375 36.4853515625 713.794921875 47.146484375 c 0
 758.022460938 212.205078125 764.03515625 389.963867188 679.849609375 508.640625 c 0
 623.79296875 587.662109375 532.848632812 631.54296875 414.643554688 631.54296875 c 0
 296.31640625 631.54296875 205.440429688 587.203125 149.499023438 507.879882812 c 0
 65.8544921875 389.275390625 71.4228515625 211.6171875 115.4921875 47.146484375 c 0
 118.349609375 36.4853515625 128.0859375 28.625 139.643554688 28.625 c 0
639.643554688 296.549804688 m 0
 639.643554688 420.798828125 538.891601562 521.549804688 414.643554688 521.549804688 c 0
 290.395507812 521.549804688 189.643554688 420.798828125 189.643554688 296.549804688 c 0
 189.643554688 172.302734375 290.395507812 71.5498046875 414.643554688 71.5498046875 c 0
 538.891601562 71.5498046875 639.643554688 172.302734375 639.643554688 296.549804688 c 0
589.643554688 296.549804688 m 0
 589.643554688 199.884765625 511.309570312 121.549804688 414.643554688 121.549804688 c 0
 317.977539062 121.549804688 239.643554688 199.884765625 239.643554688 296.549804688 c 0
 239.643554688 393.216796875 317.977539062 471.549804688 414.643554688 471.549804688 c 0
 511.309570312 471.549804688 589.643554688 393.216796875 589.643554688 296.549804688 c 0
EndSplineSet
Ligature2: "sitelen pona-1" m e l i 
EndChar
StartChar: mi.sp
Encoding: 307 60979 81
Width: 451
Flags: W
HStem: 361 50<172.368 295.72> 611 50<172.28 295.72>
VStem: 84 50<373.432 572.72> 157 48<53.0978 143.184> 334 50<449.28 572.72>
LayerCount: 3
Fore
SplineSet
359 511 m 1025
141 393.200195312 m 1
 166.541992188 373.026367188 198.834960938 361 234 361 c 0
 317 361 384 428 384 511 c 0
 384 594 317 661 234 661 c 0
 151 661 84 594 84 511 c 0
 85 387 103.275390625 249.083007812 157 70 c 0
 160 60 170 53 181 53 c 0
 197 53 210.13671875 68.041015625 205 85 c 0
 152 260 141 393.200195312 141 393.200195312 c 1
334 511 m 0
 334 456 289 411 234 411 c 0
 179 411 134 456 134 511 c 0
 134 566 179 611 234 611 c 0
 289 611 334 566 334 511 c 0
EndSplineSet
LCarets2: 2 0 0
Ligature2: "sitelen pona-1" m i 
EndChar
StartChar: mu.sp
Encoding: 312 60984 86
Width: 697
Flags: W
HStem: 40.9922 50<283.546 415.954> 151.184 100<307.505 389.056> 403.284 49.9229<139.479 186.572 512.928 560.02> 456.664 50<314.264 385.236> 603.207 50<138.762 243.236 456.262 560.736>
VStem: 66 50<476.476 580.443> 153.52 50<180.383 368.349> 266 50<503.654 580.443> 298.281 100<160.409 241.959> 383.5 50<503.654 580.443> 495.98 50<180.383 368.35> 583.5 50<476.476 580.443>
LayerCount: 3
Fore
SplineSet
398.28125 201.18359375 m 1024xfeb0
608.5 528.20703125 m 1025
398.28125 201.18359375 m 0
 398.28125 173.5703125 375.89453125 151.18359375 348.28125 151.18359375 c 0
 320.6640625 151.18359375 298.28125 173.5703125 298.28125 201.18359375 c 0
 298.28125 228.796875 320.6640625 251.18359375 348.28125 251.18359375 c 0
 375.89453125 251.18359375 398.28125 228.796875 398.28125 201.18359375 c 0
495.98046875 273.828125 m 0
 495.98046875 168.684570312 426.423828125 90.9921875 349.75 90.9921875 c 0
 273.076171875 90.9921875 203.51953125 168.684570312 203.51953125 273.828125 c 0
 203.51953125 378.971679688 273.076171875 456.6640625 349.75 456.6640625 c 0
 426.423828125 456.6640625 495.98046875 378.97265625 495.98046875 273.828125 c 0
316 528.20703125 m 0xff70
 316 597.225585938 260.018554688 653.20703125 191 653.20703125 c 0
 121.977539062 653.20703125 66 597.224609375 66 528.20703125 c 0
 66 460.66796875 119.600585938 405.6171875 186.572265625 403.284179688 c 1
 165.534179688 365.775390625 153.51953125 320.950195312 153.51953125 273.828125 c 0
 153.51953125 149.401367188 237.291015625 40.9921875 349.75 40.9921875 c 0
 462.208984375 40.9921875 545.98046875 149.401367188 545.98046875 273.828125 c 0
 545.98046875 320.950195312 533.965820312 365.775390625 512.927734375 403.284179688 c 1
 579.896484375 405.6171875 633.5 460.666992188 633.5 528.20703125 c 0
 633.5 597.225585938 577.518554688 653.20703125 508.5 653.20703125 c 0
 439.477539062 653.20703125 383.5 597.224609375 383.5 528.20703125 c 0
 383.5 519.494140625 384.391601562 510.98828125 386.08984375 502.77734375 c 1
 374.380859375 505.326171875 362.2421875 506.6640625 349.75 506.6640625 c 0
 337.2578125 506.6640625 325.119140625 505.326171875 313.41015625 502.77734375 c 1
 315.107421875 510.98828125 316 519.494140625 316 528.20703125 c 0xff70
266 528.20703125 m 0
 266 486.768554688 232.435546875 453.20703125 191 453.20703125 c 0
 149.560546875 453.20703125 116 486.767578125 116 528.20703125 c 0
 116 569.642578125 149.561523438 603.20703125 191 603.20703125 c 0
 232.434570312 603.20703125 266 569.641601562 266 528.20703125 c 0
583.5 528.20703125 m 0
 583.5 486.768554688 549.935546875 453.20703125 508.5 453.20703125 c 0
 467.060546875 453.20703125 433.5 486.767578125 433.5 528.20703125 c 0
 433.5 569.642578125 467.061523438 603.20703125 508.5 603.20703125 c 0
 549.934570312 603.20703125 583.5 569.641601562 583.5 528.20703125 c 0
EndSplineSet
Ligature2: "sitelen pona-1" m u 
EndChar
StartChar: mun.sp
Encoding: 313 60985 87
Width: 476
Flags: W
VStem: 166.434 50<190.872 475.128> 348 50<244.32 421.678>
LayerCount: 3
Fore
SplineSet
48 33 m 0
 48 17.3681640625 62.8271484375 4.12890625 79.8203125 8.943359375 c 0
 81.2421875 9.345703125 176.076171875 35.9326171875 262.631835938 99.2265625 c 0
 331.5234375 149.603515625 398 226.10546875 398 333 c 0
 398 439.89453125 331.5234375 516.396484375 262.631835938 566.7734375 c 0
 176.076171875 630.067382812 81.2421875 656.654296875 79.8203125 657.056640625 c 0
 62.8310546875 661.870117188 48 648.62890625 48 633 c 0
 48 624.629882812 52.1220703125 617.21484375 58.4462890625 612.67578125 c 2
 58.4462890625 612.67578125 66.3046875 607.504882812 81.2080078125 590.770507812 c 0
 92.5322265625 578.0546875 106.603515625 559.6015625 120.03125 534.729492188 c 0
 144.186523438 489.986328125 166.43359375 424.359375 166.43359375 333 c 0
 166.43359375 241.640625 144.186523438 176.013671875 120.03125 131.270507812 c 0
 106.603515625 106.3984375 92.5322265625 87.9453125 81.2080078125 75.2294921875 c 0
 68.0048828125 60.4033203125 61.03515625 55.181640625 58.4462890625 53.32421875 c 0
 52.1220703125 48.78515625 48 41.3701171875 48 33 c 0
155.61328125 573.03125 m 1
 244.513671875 528.916992188 348 450.741210938 348 333 c 0
 348 215.2421875 244.549804688 137.100585938 155.61328125 92.96875 c 1
 186.588867188 144.608398438 216.43359375 222.926757812 216.43359375 333 c 0
 216.43359375 443.073242188 186.588867188 521.391601562 155.61328125 573.03125 c 1
EndSplineSet
Ligature2: "sitelen pona-1" m u n 
EndChar
StartChar: musi.sp
Encoding: 314 60986 88
Width: 702
Flags: W
HStem: 58 50<265.296 440.204> 403.207 50<175.288 246.236 459.262 530.212> 603.207 50<141.762 246.236 459.262 563.736>
VStem: 69 50<475.601 580.443> 123.668 50<221.981 404.637> 269 50<475.969 580.443> 386.5 50<475.969 580.443> 531.832 50<221.981 404.638> 586.5 50<475.601 580.443>
LayerCount: 3
Fore
SplineSet
611.5 528.20703125 m 1025
319 528.20703125 m 0
 319 597.225585938 263.018554688 653.20703125 194 653.20703125 c 0
 124.977539062 653.20703125 69 597.224609375 69 528.20703125 c 0
 69 484.067382812 91.892578125 445.262695312 126.450195312 423.020507812 c 1
 125.206054688 410.254882812 123.66796875 389.283203125 123.66796875 363.612304688 c 0
 123.66796875 317.737304688 128.369140625 256.6953125 149.872070312 200.173828125 c 0
 167.033203125 155.065429688 195.701171875 111.733398438 242.6015625 84.93359375 c 0
 272.643554688 67.7666015625 309.293945312 58 352.75 58 c 0
 396.206054688 58 432.856445312 67.7666015625 462.8984375 84.93359375 c 0
 509.798828125 111.733398438 538.466796875 155.065429688 555.627929688 200.173828125 c 0
 577.130859375 256.6953125 581.83203125 317.737304688 581.83203125 363.612304688 c 0
 581.83203125 389.284179688 580.293945312 410.255859375 579.049804688 423.021484375 c 1
 613.606445312 445.263671875 636.5 484.067382812 636.5 528.20703125 c 0
 636.5 597.225585938 580.518554688 653.20703125 511.5 653.20703125 c 0
 442.477539062 653.20703125 386.5 597.224609375 386.5 528.20703125 c 0
 386.5 459.185546875 442.478515625 403.20703125 511.5 403.20703125 c 0
 517.947265625 403.20703125 524.280273438 403.6953125 530.46484375 404.637695312 c 1
 531.217773438 394.329101562 531.83203125 380.899414062 531.83203125 363.612304688 c 0
 531.83203125 321.303710938 527.006835938 265.583984375 508.876953125 217.928710938 c 0
 494.331054688 179.694335938 472.025390625 147.737304688 438.14453125 128.377929688 c 0
 416.255859375 115.870117188 388.659179688 108 352.75 108 c 0
 316.840820312 108 289.244140625 115.870117188 267.35546875 128.377929688 c 0
 233.474609375 147.737304688 211.168945312 179.694335938 196.623046875 217.928710938 c 0
 178.493164062 265.583984375 173.66796875 321.303710938 173.66796875 363.612304688 c 0
 173.66796875 380.8515625 174.283203125 394.299804688 175.036132812 404.63671875 c 1
 181.220703125 403.6953125 187.553710938 403.20703125 194 403.20703125 c 0
 263.017578125 403.20703125 319 459.184570312 319 528.20703125 c 0
269 528.20703125 m 0
 269 486.768554688 235.435546875 453.20703125 194 453.20703125 c 0
 152.560546875 453.20703125 119 486.767578125 119 528.20703125 c 0
 119 569.642578125 152.561523438 603.20703125 194 603.20703125 c 0
 235.434570312 603.20703125 269 569.641601562 269 528.20703125 c 0
586.5 528.20703125 m 0
 586.5 486.768554688 552.935546875 453.20703125 511.5 453.20703125 c 0
 470.060546875 453.20703125 436.5 486.767578125 436.5 528.20703125 c 0
 436.5 569.642578125 470.061523438 603.20703125 511.5 603.20703125 c 0
 552.934570312 603.20703125 586.5 569.641601562 586.5 528.20703125 c 0
EndSplineSet
Ligature2: "sitelen pona-1" m u s i 
EndChar
StartChar: nanpa.sp
Encoding: 316 60988 90
Width: 700
Flags: W
HStem: 208 50<75.201 100 600 624.799> 408 50<75.201 100 600 624.799>
VStem: 227.918 50<58.201 83 583 607.799> 422.082 50<58.201 83 583 607.799>
LayerCount: 3
Fore
SplineSet
422.08203125 408 m 1
 422.08203125 258 l 1
 277.91796875 258 l 1
 277.91796875 408 l 1
 422.08203125 408 l 1
100 258 m 2
 86.2021484375 258 75 246.797851562 75 233 c 0
 75 219.202148438 86.2021484375 208 100 208 c 2
 227.91796875 208 l 1
 227.91796875 83 l 2
 227.91796875 69.2021484375 239.120117188 58 252.91796875 58 c 0
 266.715820312 58 277.91796875 69.2021484375 277.91796875 83 c 2
 277.91796875 208 l 1
 422.08203125 208 l 1
 422.08203125 83 l 2
 422.08203125 69.2021484375 433.284179688 58 447.08203125 58 c 0
 460.879882812 58 472.08203125 69.2021484375 472.08203125 83 c 2
 472.08203125 208 l 1
 600 208 l 2
 613.797851562 208 625 219.202148438 625 233 c 0
 625 246.797851562 613.797851562 258 600 258 c 2
 472.08203125 258 l 1
 472.08203125 408 l 1
 600 408 l 2
 613.797851562 408 625 419.202148438 625 433 c 0
 625 446.797851562 613.797851562 458 600 458 c 2
 472.08203125 458 l 1
 472.08203125 583 l 2
 472.08203125 596.797851562 460.879882812 608 447.08203125 608 c 0
 433.284179688 608 422.08203125 596.797851562 422.08203125 583 c 2
 422.08203125 458 l 1
 277.91796875 458 l 1
 277.91796875 583 l 2
 277.91796875 596.797851562 266.715820312 608 252.91796875 608 c 0
 239.120117188 608 227.91796875 596.797851562 227.91796875 583 c 2
 227.91796875 458 l 1
 100 458 l 2
 86.2021484375 458 75 446.797851562 75 433 c 0
 75 419.202148438 86.2021484375 408 100 408 c 2
 227.91796875 408 l 1
 227.91796875 258 l 1
 100 258 l 2
EndSplineSet
Ligature2: "sitelen pona-1" n a n p a 
EndChar
StartChar: nasa.sp
Encoding: 317 60989 91
Width: 624
Flags: W
HStem: 74.21 50<240.533 304.077 324.111 406.595> 217.775 49.6758<301.075 354.59> 561.361 50<273.523 373.538 408.688 475.66>
VStem: 80 50<241.449 331.268 358.79 421.555> 224.111 50<279.547 382.861> 355.253 50<268.163 317.282> 494.735 50<209.735 269.677 282.452 356.178>
LayerCount: 3
Fore
SplineSet
372.154296875 466.720703125 m 0
 298.920898438 466.720703125 224.111328125 411.926757812 224.111328125 329.194335938 c 0
 224.111328125 292.756835938 241.53125 256.391601562 271.618164062 234.873046875 c 0
 289.198242188 222.299804688 310.673828125 214.802734375 336.700195312 217.775390625 c 0
 358.149414062 220.223632812 379.415039062 231.845703125 393.124023438 250.5625 c 0
 400.076171875 260.052734375 405.252929688 272.126953125 405.252929688 286.032226562 c 0
 405.252929688 294.395507812 403.311523438 302.852539062 399.532226562 310.758789062 c 0
 395.5078125 319.177734375 386.91015625 325 376.962890625 325 c 0
 359.661132812 325 346.08203125 306.62890625 354.393554688 289.241210938 c 0
 355.158203125 287.640625 355.252929688 286.720703125 355.252929688 286.032226562 c 0
 355.252929688 277.130859375 338.158203125 268.270507812 330.975585938 267.451171875 c 0
 318.924804688 266.07421875 309.513671875 269.235351562 300.659179688 275.568359375 c 0
 285.209960938 286.618164062 274.111328125 308.608398438 274.111328125 329.194335938 c 0
 274.111328125 379.4765625 323.204101562 419.853515625 378.092773438 416.541992188 c 0
 445.134765625 412.49609375 494.735351562 350.325195312 494.735351562 282.452148438 c 0
 494.735351562 278.202148438 494.537109375 273.9375 494.133789062 269.676757812 c 0
 486.134765625 185.184570312 408.49609375 124.209960938 324.111328125 124.209960938 c 0
 317.456054688 124.209960938 310.765625 124.59375 304.077148438 125.37890625 c 0
 202.416992188 137.322265625 130 230.369140625 130 331.267578125 c 0
 130 340.403320312 130.598632812 349.59765625 131.827148438 358.790039062 c 0
 147.693359375 477.471679688 256.111328125 561.361328125 373.538085938 561.361328125 c 0
 385.198242188 561.361328125 396.946289062 560.529296875 408.688476562 558.81640625 c 0
 435.9765625 554.83984375 462.6953125 546.434570312 487.452148438 534.138671875 c 0
 504.809570312 525.516601562 523.548828125 539.065429688 523.548828125 556.54296875 c 0
 523.548828125 566.356445312 517.8828125 574.856445312 509.645507812 578.947265625 c 0
 480.21484375 593.565429688 448.54296875 603.54296875 415.948242188 608.29296875 c 0
 401.791015625 610.357421875 387.623046875 611.361328125 373.538085938 611.361328125 c 0
 233.611328125 611.361328125 101.814453125 511.6640625 82.2705078125 365.467773438 c 0
 80.744140625 354.051757812 80 342.629882812 80 331.267578125 c 0
 80 207.923828125 168.309570312 90.98046875 298.192382812 75.72265625 c 0
 306.841796875 74.70703125 315.495117188 74.2099609375 324.111328125 74.2099609375 c 0
 430.849609375 74.2099609375 533.142578125 151.186523438 543.909179688 264.915039062 c 0
 544.463867188 270.766601562 544.735351562 276.6171875 544.735351562 282.452148438 c 0
 544.735351562 372.512695312 478.990234375 460.545898438 381.145507812 466.450195312 c 0
 378.146484375 466.630859375 375.1484375 466.720703125 372.154296875 466.720703125 c 0
EndSplineSet
Ligature2: "sitelen pona-1" n a s a 
EndChar
StartChar: nasin.sp
Encoding: 318 60990 92
Width: 480
Flags: W
VStem: 215 50<58.201 83 583 607.799>
LayerCount: 3
Fore
SplineSet
390 233 m 0
 403.797851562 233 415 244.202148438 415 258 c 0
 415 264.899414062 412.19921875 271.149414062 407.673828125 275.673828125 c 2
 265 418.348632812 l 1
 265 583 l 2
 265 596.797851562 253.797851562 608 240 608 c 0
 226.202148438 608 215 596.797851562 215 583 c 2
 215 418.348632812 l 1
 72.326171875 275.673828125 l 2
 67.80078125 271.149414062 65 264.899414062 65 258 c 0
 65 244.202148438 76.2021484375 233 90 233 c 0
 96.8994140625 233 103.149414062 235.80078125 107.673828125 240.326171875 c 2
 215 347.651367188 l 1
 215 83 l 2
 215 69.2021484375 226.202148438 58 240 58 c 0
 253.797851562 58 265 69.2021484375 265 83 c 2
 265 347.651367188 l 1
 372.326171875 240.326171875 l 2
 376.850585938 235.80078125 383.100585938 233 390 233 c 0
EndSplineSet
Ligature2: "sitelen pona-1" n a s i n 
EndChar
StartChar: ni.sp
Encoding: 320 60992 94
Width: 477
Flags: W
VStem: 213 50<583 607.799>
LayerCount: 3
Fore
SplineSet
413 233 m 0
 413 246.797851562 401.797851562 258 388 258 c 0
 381.100585938 258 374.850585938 255.19921875 370.326171875 250.673828125 c 2
 263 143.348632812 l 1
 263 583 l 2
 263 596.797851562 251.797851562 608 238 608 c 0
 224.202148438 608 213 596.797851562 213 583 c 2
 213 143.348632812 l 1
 105.673828125 250.673828125 l 2
 101.149414062 255.19921875 94.8994140625 258 88 258 c 0
 74.2021484375 258 63 246.797851562 63 233 c 0
 63 226.100585938 65.80078125 219.850585938 70.326171875 215.326171875 c 2
 220.326171875 65.326171875 l 2
 229.8359375 55.81640625 246.16015625 55.8115234375 255.673828125 65.326171875 c 2
 405.673828125 215.326171875 l 2
 410.19921875 219.850585938 413 226.100585938 413 233 c 0
EndSplineSet
Ligature2: "sitelen pona-1" n i 
EndChar
StartChar: ona.sp
Encoding: 325 60997 99
Width: 756
Flags: W
HStem: 141 50<389.705 588.72> 214 48<69.0975 160.13> 391 50<465.28 588.72>
VStem: 377 50<229 352.72> 627 50<229.28 352.72>
LayerCount: 3
Fore
SplineSet
527 416 m 1025
527 141 m 0
 403 142 266.083007812 160.275390625 87 214 c 0
 77 217 69 227 69 238 c 0
 69 254 84 267 101 262 c 0
 276.419921875 210.40625 409.997070312 197 409.997070312 197 c 1
 389.342773438 222.697265625 377 255.375 377 291 c 0
 377 374 444 441 527 441 c 0
 610 441 677 374 677 291 c 0
 677 208 610 141 527 141 c 0
527 391 m 0
 472 391 427 346 427 291 c 0
 427 236 472 191 527 191 c 0
 582 191 627 236 627 291 c 0
 627 346 582 391 527 391 c 0
EndSplineSet
LCarets2: 3 0 0 0
Ligature2: "sitelen pona-1" o n a 
EndChar
StartChar: pakala.sp
Encoding: 327 60999 101
Width: 749
Flags: W
LayerCount: 3
Fore
SplineSet
124 608 m 2
 110.202148438 608 99 596.797851562 99 583 c 2
 99 83 l 2
 99 69.2021484375 110.202148438 58 124 58 c 2
 374 58 l 1
 624 58 l 2
 637.797851562 58 649 69.2021484375 649 83 c 2
 649 583 l 2
 649 596.797851562 637.797851562 608 624 608 c 2
 374 608 l 1
 124 608 l 2
149 108 m 1
 149 558 l 1
 333.546875 558 l 1
 226.625 344.15625 l 2
 217.947265625 326.801757812 231.4921875 308 249 308 c 2
 458.546875 308 l 1
 358.546875 108 l 1
 149 108 l 1
414.453125 108 m 1
 521.375 321.84375 l 2
 530.052734375 339.198242188 516.5078125 358 499 358 c 2
 289.453125 358 l 1
 389.453125 558 l 1
 599 558 l 1
 599 108 l 1
 414.453125 108 l 1
EndSplineSet
Ligature2: "sitelen pona-1" p a k a l a 
EndChar
StartChar: pali.sp
Encoding: 328 61000 102
Width: 582
Flags: W
HStem: 308 50<280.324 397.707> 389.887 50<286.776 391.249> 589.887 50<286.776 391.249>
VStem: 214.013 50<462.65 567.125> 414.013 50<462.65 567.125> 464.013 50<58.201 83>
LayerCount: 3
Fore
SplineSet
439.012695312 514.88671875 m 1025xf0
464.012695312 514.88671875 m 0xf8
 464.012695312 583.909179688 408.030273438 639.88671875 339.012695312 639.88671875 c 0
 269.995117188 639.88671875 214.012695312 583.909179688 214.012695312 514.88671875 c 0
 214.012695312 445.868164062 269.994140625 389.88671875 339.012695312 389.88671875 c 0
 408.03125 389.88671875 464.012695312 445.868164062 464.012695312 514.88671875 c 0xf8
414.012695312 514.88671875 m 0
 414.012695312 473.452148438 380.447265625 439.88671875 339.012695312 439.88671875 c 0
 297.578125 439.88671875 264.012695312 473.452148438 264.012695312 514.88671875 c 0
 264.012695312 556.325195312 297.577148438 589.88671875 339.012695312 589.88671875 c 0
 380.448242188 589.88671875 414.012695312 556.325195312 414.012695312 514.88671875 c 0
89.0126953125 258 m 0
 69.9638671875 258 56.896484375 236.108398438 68.1962890625 219.158203125 c 2
 168.196289062 69.158203125 l 2
 172.6796875 62.43359375 180.33203125 58 189.012695312 58 c 0
 202.810546875 58 214.012695312 69.2021484375 214.012695312 83 c 2
 214.012695312 83 215.034179688 188.885742188 254.913085938 255.349609375 c 0
 274.307617188 287.672851562 299.67578125 308 339.016601562 308 c 0
 378.35546875 308 403.72265625 287.672851562 423.116210938 255.349609375 c 0
 462.993164062 188.885742188 464.012695312 83 464.012695312 83 c 2
 464.012695312 69.2021484375 475.21484375 58 489.012695312 58 c 0
 502.810546875 58 514.012695312 69.2021484375 514.012695312 83 c 0xf4
 514.012695312 83.9541015625 514.012695312 119.502929688 506.01171875 164.844726562 c 0
 499.611328125 201.11328125 488.248046875 243.9765625 466.022460938 281.020507812 c 0
 440.97265625 322.771484375 399.674804688 358 339.016601562 358 c 0
 278.357421875 358 237.057617188 322.771484375 212.006835938 281.021484375 c 0
 187.866210938 240.788085938 177.0859375 197.333984375 170.505859375 155.827148438 c 1
 109.829101562 246.841796875 l 2
 105.345703125 253.56640625 97.693359375 258 89.0126953125 258 c 0
EndSplineSet
Ligature2: "sitelen pona-1" p a l i 
EndChar
StartChar: palisa.sp
Encoding: 329 61001 103
Width: 422
Flags: W
VStem: 86 50<182.955 483.045> 286 50<182.955 483.045>
LayerCount: 3
Fore
SplineSet
336 333 m 0
 336 428.428710938 316.413085938 512.736328125 282.131835938 562.940429688 c 0
 265.181640625 587.763671875 241.538085938 608 211 608 c 0
 180.461914062 608 156.818359375 587.763671875 139.868164062 562.940429688 c 0
 105.586914062 512.736328125 86 428.428710938 86 333 c 0
 86 237.571289062 105.586914062 153.263671875 139.868164062 103.059570312 c 0
 156.818359375 78.236328125 180.461914062 58 211 58 c 0
 241.538085938 58 265.181640625 78.236328125 282.131835938 103.059570312 c 0
 316.413085938 153.263671875 336 237.571289062 336 333 c 0
286 333 m 0
 286 259.30078125 272.330078125 193.60546875 252.826171875 152.489257812 c 0
 242.370117188 130.444335938 230.564453125 116.814453125 221.770507812 111.459960938 c 0
 213.66015625 106.521484375 208.334960938 106.524414062 200.229492188 111.459960938 c 0
 191.435546875 116.814453125 179.629882812 130.444335938 169.173828125 152.489257812 c 0
 149.669921875 193.60546875 136 259.30078125 136 333 c 0
 136 406.69921875 149.669921875 472.39453125 169.173828125 513.510742188 c 0
 179.629882812 535.555664062 191.435546875 549.185546875 200.229492188 554.540039062 c 0
 208.33984375 559.478515625 213.665039062 559.475585938 221.770507812 554.540039062 c 0
 230.564453125 549.185546875 242.370117188 535.555664062 252.826171875 513.510742188 c 0
 272.330078125 472.39453125 286 406.69921875 286 333 c 0
EndSplineSet
Ligature2: "sitelen pona-1" p a l i s a 
EndChar
StartChar: pan.sp
Encoding: 330 61002 104
Width: 515
Flags: W
LayerCount: 3
Fore
SplineSet
108 258 m 0
 94.2021484375 258 83 246.797851562 83 233 c 0
 83 226.100585938 85.80078125 219.850585938 90.326171875 215.325195312 c 2
 240.330078125 65.3251953125 l 2
 249.83984375 55.81640625 266.1640625 55.8115234375 275.678710938 65.326171875 c 2
 425.674804688 215.326171875 l 2
 430.19921875 219.8515625 433 226.1015625 433 233 c 0
 433 246.797851562 421.797851562 258 408 258 c 0
 401.100585938 258 394.850585938 255.19921875 390.325195312 250.673828125 c 2
 258.00390625 118.348632812 l 1
 125.673828125 250.674804688 l 2
 121.1484375 255.19921875 114.8984375 258 108 258 c 0
108 608 m 0
 94.2021484375 608 83 596.797851562 83 583 c 0
 83 576.100585938 85.80078125 569.850585938 90.326171875 565.325195312 c 2
 240.330078125 415.325195312 l 2
 249.83984375 405.81640625 266.1640625 405.811523438 275.678710938 415.326171875 c 2
 425.674804688 565.326171875 l 2
 430.19921875 569.8515625 433 576.1015625 433 583 c 0
 433 596.797851562 421.797851562 608 408 608 c 0
 401.100585938 608 394.850585938 605.19921875 390.325195312 600.673828125 c 2
 258.00390625 468.348632812 l 1
 125.673828125 600.674804688 l 2
 121.1484375 605.19921875 114.8984375 608 108 608 c 0
108 433 m 0
 94.2021484375 433 83 421.797851562 83 408 c 0
 83 401.100585938 85.80078125 394.850585938 90.326171875 390.325195312 c 2
 240.330078125 240.325195312 l 2
 249.83984375 230.81640625 266.1640625 230.811523438 275.678710938 240.326171875 c 2
 425.674804688 390.326171875 l 2
 430.19921875 394.8515625 433 401.1015625 433 408 c 0
 433 421.797851562 421.797851562 433 408 433 c 0
 401.100585938 433 394.850585938 430.19921875 390.325195312 425.673828125 c 2
 258.00390625 293.348632812 l 1
 125.673828125 425.674804688 l 2
 121.1484375 430.19921875 114.8984375 433 108 433 c 0
EndSplineSet
Ligature2: "sitelen pona-1" p a n 
EndChar
StartChar: pana.sp
Encoding: 331 61003 105
Width: 655
Flags: W
HStem: 308 50<284.322 401.704>
VStem: 318.013 50<408.197 432.996 582.996 607.795> 468.013 50<58.201 83>
LayerCount: 3
Fore
SplineSet
93.0126953125 258 m 0
 73.9638671875 258 60.896484375 236.108398438 72.1962890625 219.158203125 c 2
 172.196289062 69.158203125 l 2
 176.6796875 62.43359375 184.33203125 58 193.012695312 58 c 0
 206.810546875 58 218.012695312 69.2021484375 218.012695312 82.9990234375 c 2
 218.012695312 82.9990234375 219.034179688 188.885742188 258.912109375 255.349609375 c 0
 278.306640625 287.672851562 303.673828125 308 343.012695312 308 c 0
 382.353515625 308 407.720703125 287.672851562 427.115234375 255.349609375 c 0
 466.993164062 188.885742188 468.012695312 83 468.012695312 83 c 2
 468.012695312 69.2021484375 479.21484375 58 493.012695312 58 c 0
 506.810546875 58 518.012695312 69.2021484375 518.012695312 83 c 0
 518.028320312 83.9541015625 518.028320312 119.415039062 510.010742188 164.844726562 c 0
 503.611328125 201.11328125 492.248046875 243.977539062 470.021484375 281.020507812 c 0
 444.970703125 322.771484375 403.671875 358 343.012695312 358 c 0
 282.354492188 358 241.056640625 322.771484375 216.005859375 281.020507812 c 0
 191.866210938 240.788085938 181.0859375 197.333984375 174.505859375 155.827148438 c 1
 113.829101562 246.841796875 l 2
 109.345703125 253.56640625 101.693359375 258 93.0126953125 258 c 0
318.012695312 432.99609375 m 2
 318.012695312 419.198242188 329.21484375 407.99609375 343.012695312 407.99609375 c 0
 356.810546875 407.99609375 368.012695312 419.198242188 368.012695312 432.99609375 c 2
 368.012695312 582.99609375 l 2
 368.012695312 596.793945312 356.810546875 607.99609375 343.012695312 607.99609375 c 0
 329.21484375 607.99609375 318.012695312 596.793945312 318.012695312 582.99609375 c 2
 318.012695312 432.99609375 l 2
474.05859375 445.528320312 m 2
 464.140625 428.350585938 477.483398438 408.0546875 495.724609375 408.0546875 c 0
 504.981445312 408.0546875 513.069335938 413.096679688 517.390625 420.581054688 c 2
 592.390625 550.483398438 l 2
 602.30859375 567.661132812 588.965820312 587.95703125 570.724609375 587.95703125 c 0
 561.467773438 587.95703125 553.379882812 582.915039062 549.05859375 575.430664062 c 2
 474.05859375 445.528320312 l 2
190.302734375 408.0546875 m 0
 208.53515625 408.0546875 221.897460938 428.331054688 211.96875 445.528320312 c 2
 136.96875 575.430664062 l 2
 132.647460938 582.915039062 124.559570312 587.95703125 115.302734375 587.95703125 c 0
 97.0703125 587.95703125 83.7080078125 567.680664062 93.63671875 550.483398438 c 2
 168.63671875 420.581054688 l 2
 172.958007812 413.096679688 181.045898438 408.0546875 190.302734375 408.0546875 c 0
EndSplineSet
Ligature2: "sitelen pona-1" p a n a 
EndChar
StartChar: pona.sp
Encoding: 339 61011 113
Width: 699
Flags: W
HStem: 172.375 50<247.263 450.757>
LayerCount: 3
Fore
SplineSet
623.848632812 409.51953125 m 0
 625.616210938 425.045898438 613.452148438 437.375 599.009765625 437.375 c 0
 586.177734375 437.375 575.58984375 427.685546875 574.170898438 415.23046875 c 1
 574.170898438 415.23046875 552.75 222.375 349.009765625 222.375 c 0
 145.26953125 222.375 123.848632812 415.23046875 123.848632812 415.23046875 c 1
 122.4296875 427.685546875 111.841796875 437.375 99.009765625 437.375 c 0
 84.5654296875 437.375 72.4033203125 425.041015625 74.1708984375 409.51953125 c 0
 74.1982421875 409.282226562 101.70703125 172.375 349.009765625 172.375 c 0
 596.3125 172.375 623.821289062 409.282226562 623.848632812 409.51953125 c 0
EndSplineSet
Ligature2: "sitelen pona-1" p o n a 
EndChar
StartChar: sinpin.sp
Encoding: 350 61022 124
Width: 606
Flags: W
HStem: 58 50<65.201 90> 283 100<445.299 526.85> 558 50<65.201 90>
VStem: 436.074 100<292.225 373.775>
CounterMasks: 1 e0
LayerCount: 3
Fore
SplineSet
436.07421875 333 m 1024
436.07421875 333 m 0
 436.07421875 360.61328125 458.4609375 383 486.07421875 383 c 0
 513.69140625 383 536.07421875 360.61328125 536.07421875 333 c 0
 536.07421875 305.38671875 513.69140625 283 486.07421875 283 c 0
 458.4609375 283 436.07421875 305.38671875 436.07421875 333 c 0
90 608 m 2
 76.2021484375 608 65 596.797851562 65 583 c 0
 65 569.202148438 76.2021484375 558 90 558 c 2
 264.99609375 558 l 1
 264.99609375 108 l 1
 90 108 l 2
 76.2021484375 108 65 96.7978515625 65 83 c 0
 65 69.2021484375 76.2021484375 58 90 58 c 2
 289.99609375 58 l 2
 303.793945312 58 314.99609375 69.2021484375 314.99609375 83 c 2
 314.99609375 583 l 2
 314.99609375 596.797851562 303.793945312 608 289.99609375 608 c 2
 90 608 l 2
EndSplineSet
Ligature2: "sitelen pona-1" s i n p i n 
EndChar
StartChar: suno.sp
Encoding: 355 61027 129
Width: 682
Flags: W
HStem: 159.773 48.2266<271.565 316 366 410.435> 308 50<66.201 91 167.773 172.139 509.861 514.227 591 615.799> 458 48.2266<271.565 316 366 410.435>
VStem: 167.773 48.2266<263.565 308 358 402.435> 316 50<58.201 83 159.773 164.139 501.861 506.227 583 607.799> 466 48.2266<263.565 308 358 402.435>
CounterMasks: 1 fc
LayerCount: 3
Fore
SplineSet
341 458 m 0
 410.052734375 458 466 402.052734375 466 333 c 0
 466 263.947265625 410.052734375 208 341 208 c 0
 271.947265625 208 216 263.947265625 216 333 c 0
 216 402.052734375 271.947265625 458 341 458 c 0
366 583 m 2
 366 596.797851562 354.797851562 608 341 608 c 0
 327.202148438 608 316 596.797851562 316 583 c 2
 316 506.2265625 l 1
 239.368164062 495.260742188 178.739257812 434.631835938 167.7734375 358 c 1
 91 358 l 2
 77.2021484375 358 66 346.797851562 66 333 c 0
 66 319.202148438 77.2021484375 308 91 308 c 2
 167.7734375 308 l 1
 178.739257812 231.368164062 239.368164062 170.739257812 316 159.7734375 c 1
 316 83 l 2
 316 69.2021484375 327.202148438 58 341 58 c 0
 354.797851562 58 366 69.2021484375 366 83 c 2
 366 159.7734375 l 1
 442.631835938 170.739257812 503.260742188 231.368164062 514.2265625 308 c 1
 591 308 l 2
 604.797851562 308 616 319.202148438 616 333 c 0
 616 346.797851562 604.797851562 358 591 358 c 2
 514.2265625 358 l 1
 503.260742188 434.631835938 442.631835938 495.260742188 366 506.2265625 c 1
 366 583 l 2
EndSplineSet
Ligature2: "sitelen pona-1" s u n o 
EndChar
StartChar: supa
Encoding: 356 61028 130
Width: 681
Flags: W
HStem: 387.374 50.001<65.201 90 589.999 614.799>
VStem: 165 50<137.576 162.375> 465 50<137.576 162.375>
LayerCount: 3
Fore
SplineSet
165 387.374023438 m 1
 165 162.375 l 2
 165 148.577148438 176.202148438 137.375 190 137.375 c 0
 203.797851562 137.375 215 148.577148438 215 162.375 c 2
 215 387.374023438 l 1
 465 387.37109375 l 1
 465 162.375 l 2
 465 148.577148438 476.202148438 137.375 490 137.375 c 0
 503.797851562 137.375 515 148.577148438 515 162.375 c 2
 515 387.372070312 l 1
 540 387.372070312 564.999023438 387.37109375 589.999023438 387.37109375 c 0
 603.797851562 387.37109375 615 398.573242188 615 412.37109375 c 0
 615 426.168945312 603.798828125 437.370117188 590.000976562 437.37109375 c 2
 90 437.375 l 2
 76.2021484375 437.375 65 426.172851562 65 412.375 c 0
 65 398.577148438 76.2021484375 387.375 90 387.375 c 0
 115 387.375 140 387.374023438 165 387.374023438 c 1
EndSplineSet
Ligature2: "sitelen pona-1" s u p a 
EndChar
StartChar: suwi.sp
Encoding: 357 61029 131
Width: 691
Flags: W
HStem: 122.996 100<302.763 384.314>
VStem: 293.539 100<132.221 213.772>
LayerCount: 3
Fore
SplineSet
393.5390625 172.99609375 m 1024
393.5390625 172.99609375 m 0
 393.5390625 145.3828125 371.15234375 122.99609375 343.5390625 122.99609375 c 0
 315.921875 122.99609375 293.5390625 145.3828125 293.5390625 172.99609375 c 0
 293.5390625 200.61328125 315.921875 222.99609375 343.5390625 222.99609375 c 0
 371.15234375 222.99609375 393.5390625 200.61328125 393.5390625 172.99609375 c 0
195.0078125 520.08203125 m 0
 186.327148438 520.08203125 178.674804688 515.6484375 174.19140625 508.923828125 c 2
 74.19140625 358.923828125 l 2
 62.908203125 341.999023438 75.9443359375 320.08203125 95.0078125 320.08203125 c 0
 103.688476562 320.08203125 111.340820312 324.515625 115.82421875 331.240234375 c 2
 195.0078125 450.015625 l 1
 274.19140625 331.240234375 l 2
 278.674804688 324.515625 286.327148438 320.08203125 295.0078125 320.08203125 c 0
 314.056640625 320.08203125 327.124023438 341.973632812 315.82421875 358.923828125 c 2
 215.82421875 508.923828125 l 2
 211.340820312 515.6484375 203.688476562 520.08203125 195.0078125 520.08203125 c 0
495.0078125 520.08203125 m 0
 486.327148438 520.08203125 478.674804688 515.6484375 474.19140625 508.923828125 c 2
 374.19140625 358.923828125 l 2
 362.908203125 341.999023438 375.944335938 320.08203125 395.0078125 320.08203125 c 0
 403.688476562 320.08203125 411.340820312 324.515625 415.82421875 331.240234375 c 2
 495.0078125 450.015625 l 1
 574.19140625 331.240234375 l 2
 578.674804688 324.515625 586.327148438 320.08203125 595.0078125 320.08203125 c 0
 614.056640625 320.08203125 627.124023438 341.973632812 615.82421875 358.923828125 c 2
 515.82421875 508.923828125 l 2
 511.340820312 515.6484375 503.688476562 520.08203125 495.0078125 520.08203125 c 0
EndSplineSet
Ligature2: "sitelen pona-1" s u w i
EndChar
StartChar: toki.sp
Encoding: 363 61035 137
Width: 627
Flags: W
HStem: 45.5117 50<250.568 378.946> 320.512 50<250.568 378.946>
VStem: 152.258 50<143.824 272.201> 289.758 50<408.197 432.996 582.996 607.795> 427.258 50<143.824 272.201>
CounterMasks: 1 38
LayerCount: 3
Fore
SplineSet
452.2578125 208.01171875 m 1025
289.7578125 432.99609375 m 2
 289.7578125 419.198242188 300.959960938 407.99609375 314.7578125 407.99609375 c 0
 328.555664062 407.99609375 339.7578125 419.198242188 339.7578125 432.99609375 c 2
 339.7578125 582.99609375 l 2
 339.7578125 596.793945312 328.555664062 607.99609375 314.7578125 607.99609375 c 0
 300.959960938 607.99609375 289.7578125 596.793945312 289.7578125 582.99609375 c 2
 289.7578125 432.99609375 l 2
445.801757812 445.5234375 m 2
 435.884765625 428.345703125 449.227539062 408.049804688 467.46875 408.049804688 c 0
 476.725585938 408.049804688 484.813476562 413.091796875 489.135742188 420.576171875 c 2
 564.135742188 550.479492188 l 2
 574.052734375 567.657226562 560.709960938 587.953125 542.46875 587.953125 c 0
 533.211914062 587.953125 525.124023438 582.911132812 520.801757812 575.426757812 c 2
 445.801757812 445.5234375 l 2
162.046875 408.049804688 m 0
 180.279296875 408.049804688 193.641601562 428.326171875 183.713867188 445.5234375 c 2
 108.713867188 575.426757812 l 2
 104.391601562 582.911132812 96.3037109375 587.953125 87.046875 587.953125 c 0
 68.814453125 587.953125 55.4521484375 567.676757812 65.3798828125 550.479492188 c 2
 140.379882812 420.576171875 l 2
 144.702148438 413.091796875 152.790039062 408.049804688 162.046875 408.049804688 c 0
477.2578125 208.01171875 m 0
 477.2578125 297.745117188 404.486328125 370.51171875 314.7578125 370.51171875 c 0
 225.024414062 370.51171875 152.2578125 297.744140625 152.2578125 208.01171875 c 0
 152.2578125 118.283203125 225.0234375 45.51171875 314.7578125 45.51171875 c 0
 404.487304688 45.51171875 477.2578125 118.282226562 477.2578125 208.01171875 c 0
427.2578125 208.01171875 m 0
 427.2578125 145.866210938 376.903320312 95.51171875 314.7578125 95.51171875 c 0
 252.607421875 95.51171875 202.2578125 145.865234375 202.2578125 208.01171875 c 0
 202.2578125 270.162109375 252.606445312 320.51171875 314.7578125 320.51171875 c 0
 376.904296875 320.51171875 427.2578125 270.161132812 427.2578125 208.01171875 c 0
EndSplineSet
Ligature2: "sitelen pona-1" t o k i
EndChar
StartChar: tu.sp
Encoding: 365 61037 139
Width: 496
Flags: W
VStem: 99 50<58.201 83 583 607.799> 346.086 50<58.201 83 583 607.799>
LayerCount: 3
Fore
SplineSet
149 583 m 2
 149 596.797851562 137.797851562 608 124 608 c 0
 110.202148438 608 99 596.797851562 99 583 c 2
 99 83 l 2
 99 69.2021484375 110.202148438 58 124 58 c 0
 137.797851562 58 149 69.2021484375 149 83 c 2
 149 583 l 2
396.0859375 583 m 2
 396.0859375 596.797851562 384.883789062 608 371.0859375 608 c 0
 357.288085938 608 346.0859375 596.797851562 346.0859375 583 c 2
 346.0859375 83 l 2
 346.0859375 69.2021484375 357.288085938 58 371.0859375 58 c 0
 384.883789062 58 396.0859375 69.2021484375 396.0859375 83 c 2
 396.0859375 583 l 2
EndSplineSet
Ligature2: "sitelen pona-1" t u
EndChar
StartChar: unpa.sp
Encoding: 366 61038 140
Width: 736
Flags: W
HStem: 58.0127 49.9902<308.17 427.68> 609.28 49.9902<169.8 274.487 461.249 565.084>
VStem: 231.793 49.9902<135.451 293.049> 453.814 49.9902<134.457 291.946>
LayerCount: 3
Fore
SplineSet
503.8046875 216.438476562 m 0
 503.8046875 179.146484375 497.458984375 144.84765625 480.244140625 116.249023438 c 0
 475.37890625 108.16796875 469.400390625 100.100585938 461.899414062 92.599609375 c 0
 438.37109375 69.0703125 404.983398438 58.0126953125 368.270507812 58.0126953125 c 0
 332.390625 58.0126953125 298.473632812 68.5654296875 274.079101562 92.9599609375 c 0
 266.61328125 100.42578125 260.520507812 108.56640625 255.506835938 116.93359375 c 0
 238.197265625 145.819335938 231.79296875 180.48046875 231.79296875 218.149414062 c 0
 231.79296875 245.892578125 235.463867188 274.901367188 241.901367188 304.436523438 c 1
 192.134765625 317.680664062 147.435546875 339.22265625 115.868164062 370.790039062 c 0
 86.9140625 399.744140625 71 436.900390625 71 475.873046875 c 0
 71 508.837890625 80.9638671875 538.768554688 96.060546875 568.038085938 c 0
 107.596679688 590.404296875 120.081054688 608.490234375 134.655273438 623.064453125 c 0
 145.369140625 633.778320312 157.125976562 642.359375 169.717773438 648.427734375 c 0
 185.502929688 656.03515625 202.178710938 659.270507812 217.194335938 659.270507812 c 0
 248.444335938 659.270507812 277.424804688 646.713867188 304.3984375 627.52734375 c 0
 327.5703125 611.045898438 349.287109375 591.607421875 368.264648438 568.7421875 c 1
 376.15625 578.190429688 384.265625 587.103515625 392.576171875 595.4140625 c 0
 422.231445312 625.069335938 467.368164062 658.852539062 517.442382812 658.852539062 c 0
 532.932617188 658.852539062 550.041992188 655.479492188 566.223632812 647.639648438 c 0
 579.133789062 641.383789062 591.19921875 632.556640625 602.2421875 621.513671875 c 0
 616.434570312 607.321289062 628.791015625 589.840820312 640.294921875 568.388671875 c 0
 656.290039062 538.561523438 667.127929688 508.608398438 667.127929688 473.754882812 c 0
 667.127929688 427.036132812 644.9140625 390.883789062 618.891601562 366.345703125 c 0
 586.294921875 335.607421875 542.638671875 315.9375 493.479492188 303.291992188 c 1
 500.045898438 273.54296875 503.8046875 244.345703125 503.8046875 216.438476562 c 0
397.270507812 525 m 1
 434.428710938 471.775390625 458.78125 412.448242188 479.270507812 351.280273438 c 1
 521.833984375 362.047851562 559.994140625 379.53125 584.607421875 402.740234375 c 0
 625.875 441.655273438 625.758789062 489.676757812 596.22265625 544.75390625 c 0
 569.330078125 594.903320312 542.018554688 608.862304688 517.442382812 608.862304688 c 0
 500.364257812 608.862304688 480.301757812 601.639648438 458.83984375 586.491210938 c 0
 438.8984375 572.416015625 416.8125 549.891601562 397.270507812 525 c 1
367.270507812 487 m 1
 335.84765625 444.775390625 321.670898438 390.303710938 304.270507812 343 c 1
 365.7890625 335.186523438 397.575195312 337.869140625 431.270507812 342 c 1
 418.865234375 387.522460938 401.083007812 440.865234375 367.270507812 487 c 1
444.52734375 293 m 1
 392.086914062 287.243164062 341.04296875 287.763671875 291.270507812 294 c 1
 285.151367188 266.434570312 281.783203125 241.987304688 281.783203125 218.149414062 c 0
 281.783203125 186.50390625 287.740234375 160.434570312 298.4140625 142.623046875 c 0
 311.76171875 120.348632812 332.564453125 108.002929688 368.270507812 108.002929688 c 0
 405.215820312 108.002929688 424.794921875 121.102539062 437.387695312 142.022460938 c 0
 447.91796875 159.515625 453.814453125 185.1796875 453.814453125 216.438476562 c 0
 453.814453125 239.857421875 450.522460938 265.85546875 444.52734375 293 c 1
337.270507812 525 m 1
 317.765625 551.106445312 295.82421875 572.260742188 275.452148438 586.750976562 c 0
 253.9609375 602.037109375 233.974609375 609.280273438 217.194335938 609.280273438 c 0
 193.212890625 609.280273438 166.517578125 595.541992188 140.50390625 545.107421875 c 0
 112.0859375 490.01171875 113.1875 442.087890625 153.87109375 403.5703125 c 0
 177.541992188 381.158203125 213.745117188 363.959960938 254.270507812 352.958007812 c 1
 275.370117188 410.305664062 299.271484375 467.65234375 337.270507812 525 c 1
EndSplineSet
Ligature2: "sitelen pona-1" u n p a 
EndChar
StartChar: utala.sp
Encoding: 368 61040 142
Width: 679
Flags: W
HStem: 58 21G<184.532 193.532 484.532 493.532>
LayerCount: 3
Fore
SplineSet
339.1640625 362 m 1
 468.032226562 562 l 2
 472.392578125 568.767578125 480.032226562 573 489.032226562 573 c 0
 508.032226562 573 520.984375 551.030273438 510.032226562 534 c 2
 369.184570312 315 l 1
 489.032226562 129 l 1
 568.032226562 247 l 2
 572.032226562 254 580.032226562 258 589.032226562 258 c 0
 608.032226562 258 621.032226562 236 610.032226562 219 c 2
 510.032226562 69 l 2
 506.032226562 62 498.032226562 58 489.032226562 58 c 0
 480.032226562 58 472.39453125 62.234375 468.032226562 69 c 2
 339.064453125 269 l 1
 210.032226562 69 l 2
 205.666992188 62.2353515625 198.032226562 58 189.032226562 58 c 0
 180.032226562 58 172.032226562 62 168.032226562 69 c 2
 68.0322265625 219 l 2
 57.0322265625 236 70.0322265625 258 89.0322265625 258 c 0
 98.0322265625 258 106.032226562 254 110.032226562 247 c 2
 189.032226562 129 l 1
 308.879882812 315 l 1
 168.032226562 534 l 2
 157.079101562 551.030273438 170.032226562 573 189.032226562 573 c 0
 198.032226562 573 205.665039062 568.763671875 210.032226562 562 c 2
 339.1640625 362 l 1
EndSplineSet
LCarets2: 5 0 0 0 0 0
Ligature2: "sitelen pona-1" u t a l a 
EndChar
StartChar: wan.sp
Encoding: 370 61042 144
Width: 363
Flags: W
VStem: 213 50<58.201 83>
LayerCount: 3
Fore
SplineSet
213 83 m 2
 213 69.2021484375 224.202148438 58 238 58 c 0
 251.797851562 58 263 69.2021484375 263 83 c 2
 263 583 l 2
 263 596.797851562 251.797851562 608 238 608 c 0
 231.100585938 608 224.850585938 605.19921875 220.326171875 600.673828125 c 2
 70.326171875 450.673828125 l 2
 65.80078125 446.149414062 63 439.899414062 63 433 c 0
 63 419.202148438 74.2021484375 408 88 408 c 0
 94.8994140625 408 101.149414062 410.80078125 105.673828125 415.326171875 c 2
 213 522.651367188 l 1
 213 83 l 2
EndSplineSet
Ligature2: "sitelen pona-1" w a n 
EndChar
StartChar: wawa.sp
Encoding: 372 61044 146
Width: 791
Flags: W
HStem: 91.125 50<334.744 463.121> 366.125 50<334.744 463.121>
VStem: 236.433 50<189.437 317.815> 511.433 50<189.437 317.815>
LayerCount: 3
Fore
SplineSet
561.432617188 253.625 m 0
 561.432617188 343.358398438 488.662109375 416.125 398.932617188 416.125 c 0
 309.203125 416.125 236.432617188 343.358398438 236.432617188 253.625 c 0
 236.432617188 163.897460938 309.202148438 91.125 398.932617188 91.125 c 0
 488.663085938 91.125 561.432617188 163.897460938 561.432617188 253.625 c 0
511.432617188 253.625 m 0
 511.432617188 191.479492188 461.079101562 141.125 398.932617188 141.125 c 0
 336.786132812 141.125 286.432617188 191.479492188 286.432617188 253.625 c 0
 286.432617188 315.774414062 336.78515625 366.125 398.932617188 366.125 c 0
 461.080078125 366.125 511.432617188 315.774414062 511.432617188 253.625 c 0
225.389648438 66.54296875 m 0
 241.047851562 66.54296875 254.302734375 81.427734375 249.424804688 98.4375 c 2
 116.096679688 563.4375 l 2
 113.100585938 573.88671875 103.467773438 581.54296875 92.0615234375 581.54296875 c 0
 76.4033203125 581.54296875 63.1484375 566.658203125 68.0263671875 549.6484375 c 2
 201.354492188 84.6484375 l 2
 204.350585938 74.19921875 213.983398438 66.54296875 225.389648438 66.54296875 c 0
544.280273438 98.4375 m 2
 539.404296875 81.4326171875 552.659179688 66.54296875 568.315429688 66.54296875 c 0
 579.721679688 66.54296875 589.354492188 74.19921875 592.350585938 84.6484375 c 2
 725.678710938 549.6484375 l 2
 730.5546875 566.653320312 717.299804688 581.54296875 701.643554688 581.54296875 c 0
 690.237304688 581.54296875 680.604492188 573.88671875 677.608398438 563.4375 c 2
 544.280273438 98.4375 l 2
EndSplineSet
Ligature2: "sitelen pona-1" w a w a
EndChar
StartChar: wile.sp
Encoding: 374 61046 148
Width: 735
Flags: W
VStem: 83 50<126.517 394.235> 143.373 47.7676<540.596 572.901>
LayerCount: 3
Fore
SplineSet
191.140625 540.595703125 m 2
 196.446289062 557.708007812 183.099609375 573 167.256835938 573 c 0
 156.036132812 573 146.532226562 565.591796875 143.373046875 555.404296875 c 0
 143.075195312 554.443359375 83 363.158203125 83 221.642578125 c 0
 83 171.909179688 90.0947265625 128.704101562 112.095703125 99.2314453125 c 0
 124.034179688 83.2373046875 141.336914062 71.1953125 162.37109375 67.021484375 c 0
 239.174804688 51.7783203125 296.71875 91.7783203125 332.86328125 132.23828125 c 0
 347.001953125 148.064453125 358.424804688 164.349609375 367.258789062 178.717773438 c 1
 376.090820312 164.349609375 387.512695312 148.065429688 401.6484375 132.239257812 c 0
 437.794921875 91.7734375 495.318359375 51.775390625 572.141601562 67.0205078125 c 0
 593.17578125 71.1943359375 610.48046875 83.236328125 622.419921875 99.23046875 c 0
 644.438476562 128.723632812 651.518554688 171.888671875 651.518554688 221.642578125 c 0
 651.518554688 363.158203125 591.438476562 554.443359375 591.140625 555.404296875 c 0
 587.981445312 565.591796875 578.477539062 573 567.256835938 573 c 0
 551.412109375 573 538.065429688 557.713867188 543.373046875 540.595703125 c 2
 543.373046875 540.595703125 623.935546875 276.2109375 595.38671875 159.787109375 c 0
 592.069335938 146.258789062 587.404296875 135.896484375 582.330078125 129.098632812 c 0
 576.7109375 121.572265625 570.96875 117.770507812 562.372070312 116.065429688 c 0
 554.184570312 114.440429688 546.448242188 113.71484375 539.107421875 113.71484375 c 0
 498.16015625 113.71484375 464.748046875 136.640625 438.9453125 165.526367188 c 0
 406.225585938 202.15625 390.506835938 242.209960938 390.506835938 242.209960938 c 2
 386.836914062 251.455078125 377.806640625 258 367.260742188 258 c 0
 356.715820312 258 347.686523438 251.45703125 344.015625 242.211914062 c 2
 344.015625 242.211914062 328.291015625 202.158203125 295.568359375 165.52734375 c 0
 269.762695312 136.640625 236.348632812 113.71484375 195.403320312 113.71484375 c 0
 188.063476562 113.71484375 180.329101562 114.440429688 172.142578125 116.064453125 c 0
 163.547851562 117.770507812 157.806640625 121.571289062 152.1875 129.098632812 c 0
 137.477539062 148.803710938 133 184.3671875 133 221.642578125 c 0
 133 351.340820312 191.140625 540.595703125 191.140625 540.595703125 c 2
EndSplineSet
LCarets2: 4 0 0 0 0
Ligature2: "sitelen pona-1" w i l e 
EndChar
StartChar: la.sp
Encoding: 375 61047 149
Width: 359
Flags: W
VStem: 228.129 50<218.594 447.506>
LayerCount: 3
Fore
SplineSet
79.51171875 663.544921875 m 0
 62.1787109375 672.5625 43 659.043945312 43 641.3515625 c 0
 43 631.704101562 48.4765625 623.325195312 56.48828125 619.158203125 c 1
 56.48828125 619.158203125 228.12890625 529.612304688 228.12890625 333.05078125 c 0
 228.12890625 136.484375 56.48828125 46.9443359375 56.48828125 46.9443359375 c 1
 48.4765625 42.7763671875 43 34.3974609375 43 24.75 c 0
 43 7.0654296875 62.1552734375 -6.47265625 79.51171875 2.5556640625 c 0
 80.9306640625 3.2939453125 278.12890625 105.060546875 278.12890625 333.05078125 c 0
 278.12890625 561.036132812 80.9306640625 662.807617188 79.51171875 663.544921875 c 0
EndSplineSet
Ligature2: "sitelen pona-1" l a 
EndChar
StartChar: tonsi.sp
Encoding: 376 61048 174
Width: 684
Flags: W
HStem: 148.916 48.541<263.098 318.742 368.742 424.386> 521.457 50<263.512 423.973>
VStem: 131.742 50<278.422 440.361> 318.742 50<34.658 59.457 148.916 152.126> 505.742 50<278.422 440.361>
CounterMasks: 1 38
LayerCount: 3
Fore
SplineSet
628.484375 509.34375 m 0
 628.484375 527.575195312 608.208007812 540.938476562 591.01171875 531.010742188 c 2
 513.6015625 486.319335938 l 1
 474.936523438 538.000976562 413.240234375 571.45703125 343.7421875 571.45703125 c 0
 274.244140625 571.45703125 212.547851562 538.000976562 173.8828125 486.319335938 c 1
 96.47265625 531.010742188 l 2
 79.2958984375 540.927734375 59 527.583984375 59 509.34375 c 0
 59 500.086914062 64.0419921875 491.998046875 71.52734375 487.676757812 c 2
 148.857421875 443.032226562 l 1
 137.842773438 417.38671875 131.7421875 389.1328125 131.7421875 359.45703125 c 0
 131.7421875 250.846679688 213.452148438 161.290039062 318.7421875 148.916015625 c 1
 318.7421875 59.45703125 l 2
 318.7421875 45.6591796875 329.944335938 34.45703125 343.7421875 34.45703125 c 0
 357.540039062 34.45703125 368.7421875 45.6591796875 368.7421875 59.45703125 c 2
 368.7421875 148.916015625 l 1
 474.032226562 161.290039062 555.7421875 250.846679688 555.7421875 359.45703125 c 0
 555.7421875 389.1328125 549.641601562 417.38671875 538.626953125 443.032226562 c 1
 615.95703125 487.676757812 l 2
 623.442382812 491.998046875 628.484375 500.086914062 628.484375 509.34375 c 0
505.7421875 359.45703125 m 0
 505.7421875 269.970703125 433.228515625 197.45703125 343.7421875 197.45703125 c 0
 254.255859375 197.45703125 181.7421875 269.970703125 181.7421875 359.45703125 c 0
 181.7421875 448.943359375 254.255859375 521.45703125 343.7421875 521.45703125 c 0
 433.228515625 521.45703125 505.7421875 448.943359375 505.7421875 359.45703125 c 0
EndSplineSet
LCarets2: 5 0 0 0 0 0
Ligature2: "sitelen pona-1" t o n s i 
EndChar
StartChar: pake.sp
Encoding: 378 61050 176
Width: 569
Flags: W
HStem: 523 50<61.201 86 486 510.799>
VStem: 261.004 50<93.201 118>
LayerCount: 3
Fore
SplineSet
261.00390625 523 m 1
 261.00390625 118 l 2
 261.00390625 104.202148438 272.206054688 93 286.00390625 93 c 0
 299.801757812 93 311.00390625 104.202148438 311.00390625 118 c 2
 311.00390625 523 l 1
 486 523 l 2
 499.797851562 523 511 534.202148438 511 548 c 0
 511 561.797851562 499.797851562 573 486 573 c 2
 86 573 l 2
 72.2021484375 573 61 561.797851562 61 548 c 0
 61 534.202148438 72.2021484375 523 86 523 c 2
 261.00390625 523 l 1
EndSplineSet
Ligature2: "sitelen pona-1" p a k e 
EndChar
StartChar: linluwi.sp
Encoding: 381 61053 179
Width: 729
Flags: HMW
HStem: 121 50 138 50 171 50 195 50 283 50 308 50
VStem: 89 50<58.201 83> 339.004 50<58.201 83 408.197 432.996 582.996 607.795> 589 50<58.201 83 171.386 181.915>
LayerCount: 3
Fore
SplineSet
389 171 m 1x2380
 435 203 543 203 589 171 c 1
 589 83 l 2
 589 69 600 58 614 58 c 0
 628 58 639 69 639 83 c 2
 639 333 l 2x2b80
 639 347 628 358 614 358 c 2
 114 358 l 2x0780
 100 358 89 347 89 333 c 2
 89 83 l 2
 89 69 100 58 114 58 c 0
 128 58 139 69 139 83 c 2
 139 138 l 1
 196 115 282 115 339 138 c 1x4b80
 339 83 l 2
 339 69 350 58 364 58 c 0
 378 58 389 69 389 83 c 2
 389 171 l 1x2380
339 433 m 2
 339 419 350 408 364 408 c 0
 378 408 389 419 389 433 c 2
 389 583 l 2
 389 597 378 608 364 608 c 0
 350 608 339 597 339 583 c 2
 339 433 l 2
495 446 m 2
 485 429 499 408 517 408 c 0
 526 408 534 414 538 421 c 2
 613 550 l 2
 623 567 610 588 592 588 c 0
 583 588 574 582 570 575 c 2
 495 446 l 2
211 408 m 0
 229 408 243 429 233 446 c 2
 158 575 l 2
 154 582 145 588 136 588 c 0
 118 588 105 567 115 550 c 2
 190 421 l 2
 194 414 202 408 211 408 c 0
139 188 m 1x4b80
 139 308 l 1
 589 308 l 1x4780
 589 220 l 1
 543 253 436 253 389 220 c 1
 389 258 l 2
 389 272 378 283 364 283 c 0
 350 283 339 272 339 258 c 2
 339 188 l 1
 287 165 196 165 139 188 c 1x4b80
EndSplineSet
LCarets2: 6 0 0 0 0 0 0
Ligature2: "sitelen pona-1" l i n l u w i
EndChar
StartChar: kan.sp
Encoding: 384 61056 182
Width: 726
Flags: W
HStem: 45.5156 50<198.186 353.186> 395.516 48.6191<199.224 255.738 302.786 350.638> 570.522 50<374.185 528.346>
VStem: 76 50<167.701 322.815> 425.998 48.623<168.752 225.273 272.32 320.171> 600.989 50<343.718 497.88>
LayerCount: 3
Fore
SplineSet
474.62109375 221.912109375 m 1
 545.8203125 230.368164062 607.8515625 276.602539062 635.771484375 343.995117188 c 0
 646.005859375 368.703125 650.989257812 394.657226562 650.989257812 420.477539062 c 0
 650.989257812 472.552734375 630.709960938 523.625976562 592.399414062 561.936523438 c 0
 554.090820312 600.24609375 503.018554688 620.522460938 450.947265625 620.522460938 c 0
 425.125976562 620.522460938 399.173828125 615.5390625 374.46484375 605.3046875 c 0
 307.060546875 577.385742188 260.828125 515.340820312 252.37890625 444.134765625 c 1
 153.067382812 432.4453125 76 347.967773438 76 245.515625 c 0
 76 135.076171875 165.560546875 45.515625 276 45.515625 c 0
 378.454101562 45.515625 462.939453125 122.592773438 474.62109375 221.912109375 c 1
302.786132812 443.736328125 m 1
 310.779296875 494.83984375 344.796875 538.88671875 393.56640625 559.087890625 c 0
 412.162109375 566.791015625 431.6796875 570.522460938 450.947265625 570.522460938 c 0
 489.956054688 570.522460938 528.405273438 555.234375 557.051757812 526.586914062 c 0
 585.700195312 497.939453125 600.989257812 459.48828125 600.989257812 420.477539062 c 0
 600.989257812 401.2109375 597.258789062 381.6953125 589.556640625 363.098632812 c 0
 569.35546875 314.3359375 525.31640625 280.317382812 474.21875 272.3203125 c 1
 462.291992188 361.331054688 391.796875 431.817382812 302.786132812 443.736328125 c 1
425.998046875 246.340820312 m 0
 425.989257812 246.067382812 425.984375 245.791992188 425.984375 245.515625 c 0
 425.984375 245.239257812 425.989257812 244.963867188 425.998046875 244.690429688 c 0
 425.553710938 162.212890625 358.58203125 95.515625 276 95.515625 c 0
 193.142578125 95.515625 126 162.658203125 126 245.515625 c 0
 126 328.375976562 193.142578125 395.515625 276 395.515625 c 0
 358.58203125 395.515625 425.553710938 328.821289062 425.998046875 246.340820312 c 0
EndSplineSet
Ligature2: "sitelen pona-1" k a n 
EndChar
StartChar: soko.sp
Encoding: 388 61060 186
Width: 698
Flags: HMW
HStem: 308 50 558 50
VStem: 74 50 574 50
LayerCount: 3
Fore
SplineSet
99 308 m 0
 142 308 184 308 227 308 c 1
 227 86 l 2
 227 72 238 61 252 61 c 2
 446 61 l 2
 460 61 471 72 471 86 c 2
 471 308 l 1
 514 308 556 308 599 308 c 0
 613 308 624 319 624 333 c 0
 624 335 624 385 602 442 c 0
 585 488 553 539 494 573 c 0
 456 595 408 608 349 608 c 0
 290 608 242 595 204 573 c 0
 145 539 113 488 96 442 c 0
 74 385 74 335 74 333 c 0
 74 319 85 308 99 308 c 0
277 111 m 1
 277 308 l 1
 421 308 l 1
 421 111 l 1
 277 111 l 1
349 558 m 0
 466 558 534 509 572 358 c 1
 126 358 l 1
 170 504 232 558 349 558 c 0
EndSplineSet
Ligature2: "sitelen pona-1" s o k o 
EndChar
StartChar: oke.sp
Encoding: 390 61062 188
Width: 725
Flags: W
HStem: 58 50<269.425 456.575> 558 50<267.785 458.216>
VStem: 88 50<239.425 428.216> 588 50<239.425 428.215>
LayerCount: 3
Fore
SplineSet
113 608 m 0
 99.2021484375 608 88 596.797851562 88 583 c 0
 88 576.100585938 90.80078125 569.850585938 95.326171875 565.325195312 c 2
 151.677734375 508.974609375 l 1
 111.920898438 461.28515625 88 399.932617188 88 333 c 0
 88 181.138671875 211.138671875 58 363 58 c 0
 514.861328125 58 638 181.138671875 638 333 c 0
 638 399.931640625 614.080078125 461.284179688 574.323242188 508.973632812 c 1
 630.674804688 565.326171875 l 2
 635.19921875 569.8515625 638 576.1015625 638 583 c 0
 638 596.797851562 626.797851562 608 613 608 c 0
 606.100585938 608 599.850585938 605.19921875 595.325195312 600.673828125 c 2
 538.974609375 544.322265625 l 1
 491.28515625 584.079101562 429.932617188 608 363 608 c 0
 296.068359375 608 234.715820312 584.080078125 187.026367188 544.323242188 c 1
 130.673828125 600.674804688 l 2
 126.1484375 605.19921875 119.8984375 608 113 608 c 0
588 333 m 0
 588 208.720703125 487.279296875 108 363 108 c 0
 238.720703125 108 138 208.720703125 138 333 c 0
 138 386.133789062 156.41015625 434.9609375 187.200195312 473.452148438 c 1
 345.330078125 315.325195312 l 2
 354.83984375 305.81640625 371.1640625 305.811523438 380.678710938 315.326171875 c 2
 538.80078125 473.450195312 l 1
 569.58984375 434.959960938 588 386.1328125 588 333 c 0
503.452148438 508.799804688 m 1
 363.00390625 368.348632812 l 1
 222.549804688 508.80078125 l 1
 261.040039062 539.590820312 309.8671875 558 363 558 c 0
 416.133789062 558 464.9609375 539.58984375 503.452148438 508.799804688 c 1
EndSplineSet
LCarets2: 3 0 0 0
Ligature2: "sitelen pona-1" o k e 
EndChar
StartChar: namako.sp
Encoding: 391 61063 189
Width: 688
Flags: W
HStem: 310.918 50<69.201 94 244 268.799 419.201 444 594 618.799>
VStem: 319 50<61.119 85.918 235.918 260.717 411.119 435.918 585.918 610.717>
LayerCount: 3
Fore
SplineSet
94 360.91796875 m 2
 80.2021484375 360.91796875 69 349.715820312 69 335.91796875 c 0
 69 322.120117188 80.2021484375 310.91796875 94 310.91796875 c 2
 244 310.91796875 l 2
 257.797851562 310.91796875 269 322.120117188 269 335.91796875 c 0
 269 349.715820312 257.797851562 360.91796875 244 360.91796875 c 2
 94 360.91796875 l 2
369 585.91796875 m 2
 369 599.715820312 357.797851562 610.91796875 344 610.91796875 c 0
 330.202148438 610.91796875 319 599.715820312 319 585.91796875 c 2
 319 435.91796875 l 2
 319 422.120117188 330.202148438 410.91796875 344 410.91796875 c 0
 357.797851562 410.91796875 369 422.120117188 369 435.91796875 c 2
 369 585.91796875 l 2
594 310.91796875 m 2
 607.797851562 310.91796875 619 322.120117188 619 335.91796875 c 0
 619 349.715820312 607.797851562 360.91796875 594 360.91796875 c 2
 444 360.91796875 l 2
 430.202148438 360.91796875 419 349.715820312 419 335.91796875 c 0
 419 322.120117188 430.202148438 310.91796875 444 310.91796875 c 2
 594 310.91796875 l 2
369 235.91796875 m 2
 369 249.715820312 357.797851562 260.91796875 344 260.91796875 c 0
 330.202148438 260.91796875 319 249.715820312 319 235.91796875 c 2
 319 85.91796875 l 2
 319 72.1201171875 330.202148438 60.91796875 344 60.91796875 c 0
 357.797851562 60.91796875 369 72.1201171875 369 85.91796875 c 2
 369 235.91796875 l 2
EndSplineSet
Ligature2: "sitelen pona-1" n a m a k o 
EndChar
StartChar: alu.sp
Encoding: 396 61068 194
Width: 360
Flags: W
VStem: 81 50<211.11 440.021>
LayerCount: 3
Fore
SplineSet
316.125 633.86328125 m 0
 316.125 651.547851562 296.969726562 665.0859375 279.61328125 656.056640625 c 0
 278.194335938 655.319335938 81 553.551757812 81 325.56640625 c 0
 81 97.578125 278.194335938 -4.1904296875 279.61328125 -4.927734375 c 0
 296.947265625 -13.9453125 316.125 -0.4267578125 316.125 17.265625 c 0
 316.125 26.9130859375 310.6484375 35.2919921875 302.63671875 39.458984375 c 1
 302.63671875 39.458984375 131 129.000976562 131 325.56640625 c 0
 131 522.12890625 302.63671875 611.669921875 302.63671875 611.669921875 c 1
 310.6484375 615.836914062 316.125 624.215820312 316.125 633.86328125 c 0
EndSplineSet
Ligature2: "sitelen pona-1" a l u
LCarets2: 3 0 0 0
EndChar
StartChar: mulapisu.sp
Encoding: 400 61072 198
Width: 670
Flags: W
HStem: 58 21G<331.177 340.967> 270.5 100<295.293 376.844> 408 100<220.293 301.844 370.293 451.844> 558 50<126.525 545.619>
VStem: 211.068 100<417.225 498.775> 286.068 100<279.725 361.275> 361.068 100<417.225 498.775>
LayerCount: 3
Fore
SplineSet
361.068359375 458 m 1024xf2
361.068359375 458 m 0
 361.068359375 485.61328125 383.455078125 508 411.068359375 508 c 0
 438.685546875 508 461.068359375 485.61328125 461.068359375 458 c 0
 461.068359375 430.38671875 438.685546875 408 411.068359375 408 c 0
 383.455078125 408 361.068359375 430.38671875 361.068359375 458 c 0
211.068359375 458 m 0xf8
 211.068359375 485.61328125 233.455078125 508 261.068359375 508 c 0
 288.685546875 508 311.068359375 485.61328125 311.068359375 458 c 0
 311.068359375 430.38671875 288.685546875 408 261.068359375 408 c 0
 233.455078125 408 211.068359375 430.38671875 211.068359375 458 c 0xf8
286.068359375 320.5 m 0xf4
 286.068359375 348.11328125 308.455078125 370.5 336.068359375 370.5 c 0
 363.685546875 370.5 386.068359375 348.11328125 386.068359375 320.5 c 0
 386.068359375 292.88671875 363.685546875 270.5 336.068359375 270.5 c 0
 308.455078125 270.5 286.068359375 292.88671875 286.068359375 320.5 c 0xf4
336.072265625 138.90625 m 1
 545.619140625 558 l 1
 126.525390625 558 l 1
 336.072265625 138.90625 l 1
586.072265625 608 m 2
 603.573242188 608 617.134765625 589.219726562 608.447265625 571.84375 c 2
 358.447265625 71.84375 l 2
 354.345703125 63.6396484375 345.862304688 58 336.072265625 58 c 0
 326.282226562 58 317.798828125 63.6396484375 313.697265625 71.84375 c 2
 63.697265625 571.84375 l 2
 55.01953125 589.198242188 68.564453125 608 86.072265625 608 c 2
 586.072265625 608 l 2
EndSplineSet
Ligature2: "sitelen pona-1" m u l a p i s u 
EndChar
StartChar: jasima.sp
Encoding: 401 61073 199
Width: 700
Flags: W
HStem: 137.64 50<403.213 519.029> 263.941 50<179.649 306.348> 355.56 50<402.322 524.15> 476.423 50<185.369 309.233>
VStem: 321.542 50<58.201 83 219.328 247.627 436.643 462.359 583 607.799>
LayerCount: 3
Fore
SplineSet
456.5078125 405.559570312 m 0
 416.888671875 405.559570312 398.004882812 429.627929688 371.541992188 461.018554688 c 1
 371.541992188 583 l 2
 371.541992188 596.797851562 360.33984375 608 346.541992188 608 c 0
 332.744140625 608 321.541992188 596.797851562 321.541992188 583 c 2
 321.541992188 507.721679688 l 1
 303.750976562 518.787109375 282.13671875 526.422851562 254.9453125 526.422851562 c 0
 210.428710938 526.422851562 174.780273438 510.359375 148.234375 489.454101562 c 0
 95.4619140625 447.896484375 76.8974609375 389.034179688 76.306640625 387.2265625 c 0
 70.69140625 370.049804688 84.0947265625 354.461914062 100.075195312 354.461914062 c 0
 111.163085938 354.461914062 120.57421875 361.6953125 123.84375 371.697265625 c 2
 123.84375 371.697265625 139.1953125 418.702148438 179.131835938 450.15234375 c 0
 198.47265625 465.383789062 222.795898438 476.422851562 254.9453125 476.422851562 c 0
 285.154296875 476.422851562 302.575195312 463.33203125 321.541992188 442.381835938 c 1
 321.541992188 293.374023438 l 1
 303.260742188 305.483398438 280.97265625 313.94140625 252.73828125 313.94140625 c 0
 208.893554688 313.94140625 173.810546875 299.75390625 147.500976562 280.88671875 c 0
 95.1162109375 243.319335938 77.1162109375 189.591796875 76.4267578125 187.587890625 c 0
 70.498046875 170.353515625 83.951171875 154.4609375 100.07421875 154.4609375 c 0
 111.02734375 154.4609375 120.345703125 161.520507812 123.721679688 171.333984375 c 1
 123.721679688 171.333984375 156.189453125 263.94140625 252.73828125 263.94140625 c 0
 283.421875 263.94140625 301.39453125 249.41796875 321.541992188 226.33203125 c 1
 321.541992188 83 l 2
 321.541992188 69.2021484375 332.744140625 58 346.541992188 58 c 0
 360.33984375 58 371.541992188 69.2021484375 371.541992188 83 c 2
 371.541992188 170.600585938 l 1
 392.517578125 152.2734375 419.368164062 137.639648438 456.5078125 137.639648438 c 0
 510.26171875 137.639648438 549.962890625 165.837890625 576.040039062 194.559570312 c 0
 608.750976562 230.586914062 622.928710938 269.186523438 623.505859375 270.735351562 c 0
 629.961914062 288.045898438 616.440429688 304.459960938 600.073242188 304.459960938 c 0
 589.34375 304.459960938 580.18359375 297.685546875 576.640625 288.184570312 c 2
 576.640625 288.184570312 565.278320312 257.07421875 539.016601562 228.150390625 c 0
 518.53515625 205.592773438 491.642578125 187.639648438 456.5078125 187.639648438 c 0
 417.890625 187.639648438 398.44921875 211.840820312 371.541992188 244.571289062 c 1
 371.541992188 387.823242188 l 1
 392.384765625 369.9375 419.1953125 355.559570312 456.5078125 355.559570312 c 0
 495.559570312 355.559570312 527.6953125 368.626953125 552.331054688 385.598632812 c 0
 601.416992188 419.413085938 622.158203125 467.572265625 622.963867188 469.401367188 c 0
 630.616210938 486.772460938 617.041015625 504.459960938 600.073242188 504.459960938 c 0
 589.852539062 504.459960938 581.056640625 498.313476562 577.182617188 489.518554688 c 2
 577.182617188 489.518554688 561.056640625 452.3203125 524.014648438 426.802734375 c 0
 506.11328125 414.469726562 484.122070312 405.559570312 456.5078125 405.559570312 c 0
EndSplineSet
Ligature2: "sitelen pona-1" j a s i m a 
EndChar
StartChar: nasinkulupu.sp
Encoding: 403 61075 210
Width: 821
Flags: W
HStem: 202.164 50<146.764 251.238 570.098 674.572> 402.164 50<146.764 251.238 570.098 674.572> 413.832 50<358.436 462.91> 613.832 50<358.436 462.91>
VStem: 74 50<274.926 379.4> 274 50<274.926 379.4> 285.672 50<486.596 591.07> 385.672 50<5.28304 30.082 355.082 379.881> 485.672 50<486.596 591.07> 497.336 50<274.926 379.4> 697.336 50<274.926 379.4>
LayerCount: 3
Fore
SplineSet
722.3359375 327.1640625 m 1025x9920
535.671875 538.83203125 m 0xbba0
 535.671875 607.852539062 479.693359375 663.83203125 410.671875 663.83203125 c 0
 341.654296875 663.83203125 285.671875 607.853515625 285.671875 538.83203125 c 0
 285.671875 469.813476562 341.653320312 413.83203125 410.671875 413.83203125 c 0
 479.694335938 413.83203125 535.671875 469.814453125 535.671875 538.83203125 c 0xbba0
485.671875 538.83203125 m 0
 485.671875 497.396484375 452.110351562 463.83203125 410.671875 463.83203125 c 0
 369.237304688 463.83203125 335.671875 497.397460938 335.671875 538.83203125 c 0
 335.671875 580.26953125 369.236328125 613.83203125 410.671875 613.83203125 c 0
 452.111328125 613.83203125 485.671875 580.270507812 485.671875 538.83203125 c 0
324 327.1640625 m 0xdd20
 324 396.181640625 268.021484375 452.1640625 199 452.1640625 c 0
 129.981445312 452.1640625 74 396.182617188 74 327.1640625 c 0
 74 258.141601562 129.982421875 202.1640625 199 202.1640625 c 0
 268.020507812 202.1640625 324 258.142578125 324 327.1640625 c 0xdd20
274 327.1640625 m 0
 274 285.724609375 240.438476562 252.1640625 199 252.1640625 c 0
 157.564453125 252.1640625 124 285.725585938 124 327.1640625 c 0
 124 368.598632812 157.565429688 402.1640625 199 402.1640625 c 0
 240.4375 402.1640625 274 368.599609375 274 327.1640625 c 0
747.3359375 327.1640625 m 0
 747.3359375 396.182617188 691.354492188 452.1640625 622.3359375 452.1640625 c 0
 553.313476562 452.1640625 497.3359375 396.181640625 497.3359375 327.1640625 c 0xd960
 497.3359375 258.142578125 553.314453125 202.1640625 622.3359375 202.1640625 c 0
 691.353515625 202.1640625 747.3359375 258.141601562 747.3359375 327.1640625 c 0
697.3359375 327.1640625 m 0
 697.3359375 285.725585938 663.771484375 252.1640625 622.3359375 252.1640625 c 0
 580.896484375 252.1640625 547.3359375 285.724609375 547.3359375 327.1640625 c 0
 547.3359375 368.599609375 580.897460938 402.1640625 622.3359375 402.1640625 c 0
 663.770507812 402.1640625 697.3359375 368.598632812 697.3359375 327.1640625 c 0
560.671875 80.08203125 m 0
 574.469726562 80.08203125 585.671875 91.2841796875 585.671875 105.08203125 c 0
 585.671875 111.981445312 582.87109375 118.231445312 578.345703125 122.755859375 c 2
 435.671875 265.430664062 l 1
 435.671875 355.08203125 l 2
 435.671875 368.879882812 424.469726562 380.08203125 410.671875 380.08203125 c 0
 396.874023438 380.08203125 385.671875 368.879882812 385.671875 355.08203125 c 2
 385.671875 265.430664062 l 1
 242.998046875 122.755859375 l 2
 238.47265625 118.231445312 235.671875 111.981445312 235.671875 105.08203125 c 0
 235.671875 91.2841796875 246.874023438 80.08203125 260.671875 80.08203125 c 0
 267.571289062 80.08203125 273.821289062 82.8828125 278.345703125 87.408203125 c 2
 385.671875 194.733398438 l 1
 385.671875 30.08203125 l 2
 385.671875 16.2841796875 396.874023438 5.08203125 410.671875 5.08203125 c 0
 424.469726562 5.08203125 435.671875 16.2841796875 435.671875 30.08203125 c 2
 435.671875 194.733398438 l 1
 542.998046875 87.408203125 l 2
 547.522460938 82.8828125 553.772460938 80.08203125 560.671875 80.08203125 c 0
EndSplineSet
Ligature2: "sitelen pona-1" n a s i n hyphen k u l u p u
LCarets2: 2 0 0
EndChar
StartChar: yupekosi.sp
Encoding: 411 61083 250
Width: 624
Flags: W
HStem: 78 50<201.874 382.807> 319.461 50<209.603 396.189>
VStem: 81.0469 50<454.621 592.799> 481.047 50<224.488 309.207 458.289 592.799>
LayerCount: 3
Fore
SplineSet
131.046875 568 m 0
 131.046875 581.797851562 119.844726562 593 106.046875 593 c 0
 92.2490234375 593 81.046875 581.797851562 81.046875 568 c 0
 81.046875 497.87109375 96.0126953125 440.694335938 127.379882812 398.22265625 c 0
 167.043945312 344.517578125 229.991210938 319.4609375 306.046875 319.4609375 c 0
 376.39453125 319.4609375 439.2890625 344.705078125 480.588867188 397.706054688 c 1
 481.046875 309.20703125 l 2
 481.046875 185.520507812 371.7421875 128 306.046875 128 c 0
 250.432617188 128 214.875 140.360351562 190.202148438 156.280273438 c 0
 158.3671875 176.822265625 142.754882812 204.419921875 127.713867188 230.47265625 c 0
 123.392578125 237.958007812 115.303710938 243 106.046875 243 c 0
 87.8154296875 243 74.4521484375 222.723632812 84.3798828125 205.52734375 c 0
 99.580078125 179.19921875 119.845703125 142.17578125 163.14453125 114.236328125 c 0
 196.881835938 92.466796875 242.814453125 78 306.046875 78 c 0
 392.9140625 78 531.046875 151.143554688 531.046875 309.20703125 c 2
 531.046875 568 l 2
 531.046875 581.797851562 519.844726562 593 506.046875 593 c 0
 492.249023438 593 481.046875 581.797851562 481.046875 568 c 0
 481.046875 505.442382812 465.516601562 459.69921875 441.127929688 428.400390625 c 0
 410.90234375 389.611328125 364.670898438 369.4609375 306.046875 369.4609375 c 0
 240.53125 369.4609375 195.751953125 389.798828125 167.624023438 427.883789062 c 0
 144.756835938 458.846679688 131.046875 504.795898438 131.046875 568 c 0
EndSplineSet
Ligature2: "sitelen pona-1" y u p e k o s i 
EndChar
StartChar: unu.sp
Encoding: 412 61084 251
Width: 464
Flags: W
VStem: 207 50<474.506 545.341>
LayerCount: 3
Fore
SplineSet
131.03515625 124.98828125 m 1
 232 264.083007812 l 1
 332.96484375 124.98828125 l 1
 131.03515625 124.98828125 l 1
139.715820312 368.907226562 m 0
 143.682617188 368.907226562 172.272460938 377.374023438 207 377.374023438 c 1
 207 314.749023438 l 1
 61.7548828125 114.651367188 l 2
 58.7646484375 110.53125 57 105.463867188 57 99.98828125 c 0
 57 86.1904296875 68.2021484375 74.98828125 82 74.98828125 c 2
 382 74.98828125 l 2
 395.797851562 74.98828125 407 86.1904296875 407 99.98828125 c 0
 407 105.463867188 405.235351562 110.53125 402.245117188 114.651367188 c 2
 257 314.749023438 l 1
 257 395.981445312 l 1
 283.424804688 410.15625 308.3359375 432.622070312 317.827148438 468.044921875 c 0
 332.267578125 521.938476562 301.908203125 566.26953125 274.5390625 594.623046875 c 0
 245.438476562 624.76953125 214.260742188 642.344726562 213.127929688 642.98828125 c 0
 195.932617188 652.771484375 175.79296875 639.405273438 175.79296875 621.243164062 c 0
 175.79296875 614.99609375 178.088867188 609.28125 181.8828125 604.897460938 c 0
 182.256835938 604.442382812 187.361328125 598.109375 192.087890625 586.620117188 c 0
 196.452148438 576.010742188 200.537109375 561.030273438 200.537109375 541.782226562 c 0
 200.537109375 529.974609375 199.001953125 516.401367188 194.875976562 501.005859375 c 0
 186.328125 469.10546875 172.145507812 449.340820312 159.477539062 436.831054688 c 0
 152.423828125 429.866210938 145.75390625 425.141601562 140.688476562 422.100585938 c 0
 135.404296875 418.927734375 132.259765625 417.737304688 131.750976562 417.5546875 c 0
 121.938476562 414.177734375 114.87890625 404.860351562 114.87890625 393.907226562 c 0
 114.87890625 380.163085938 125.993164062 368.994140625 139.715820312 368.907226562 c 0
243.178710938 488.048828125 m 0
 248.89453125 509.380859375 250.936523438 527.115234375 250.485351562 546.181640625 c 1
 263.12109375 529.8515625 271.4375 512.124023438 271.4375 495.35546875 c 0
 271.4375 490.719726562 270.857421875 485.975585938 269.524414062 481.001953125 c 0
 263.6171875 458.952148438 245.30078125 444.002929688 220.341796875 433.971679688 c 1
 229.350585938 448.671875 237.405273438 466.505859375 243.178710938 488.048828125 c 0
EndSplineSet
LCarets2: 2 0 0
Ligature2: "sitelen pona-1" u n u
EndChar
StartChar: linjasuwi.sp
Encoding: 417 61089 256
Width: 689
Flags: W
HStem: 55.25 100<304.428 385.978> 460.373 50<189.671 295.432> 573.019 50<395.505 501.644>
VStem: 295.203 100<64.475 146.025>
LayerCount: 3
Fore
SplineSet
121.453125 613.12890625 m 0
 104.995117188 613.12890625 91.4462890625 596.53515625 98.1025390625 579.186523438 c 0
 98.634765625 577.798828125 111.408203125 543.91015625 138.889648438 511.939453125 c 0
 160.626953125 486.65234375 193.935546875 460.373046875 239.126953125 460.373046875 c 0
 277.663085938 460.373046875 319.015625 479.712890625 362.676757812 523.372070312 c 0
 401.786132812 562.48046875 431.569335938 573.018554688 452.483398438 573.018554688 c 0
 476.705078125 573.018554688 497.20703125 558.672851562 513.901367188 538.637695312 c 0
 535.12890625 513.161132812 545.045898438 485.443359375 545.045898438 485.443359375 c 1
 548.532226562 475.833984375 557.747070312 468.9609375 568.5546875 468.9609375 c 0
 584.8359375 468.9609375 598.340820312 485.178710938 592.063476562 502.478515625 c 0
 591.556640625 503.875976562 579.346679688 538.1875 552.329101562 570.61328125 c 0
 530.963867188 596.254882812 497.875 623.018554688 452.483398438 623.018554688 c 0
 413.650390625 623.018554688 371.884765625 603.275390625 327.329101562 558.721679688 c 0
 289.258789062 520.65234375 260.004882812 510.373046875 239.126953125 510.373046875 c 0
 214.762695312 510.373046875 193.854492188 524.688476562 176.818359375 544.506835938 c 0
 155.149414062 569.71484375 144.803710938 597.071289062 144.803710938 597.071289062 c 1
 141.202148438 606.458007812 132.100585938 613.12890625 121.453125 613.12890625 c 0
495.0078125 414.811523438 m 0
 486.327148438 414.811523438 478.674804688 410.377929688 474.19140625 403.653320312 c 2
 374.19140625 253.653320312 l 2
 362.908203125 236.728515625 375.944335938 214.811523438 395.0078125 214.811523438 c 0
 403.688476562 214.811523438 411.340820312 219.245117188 415.82421875 225.969726562 c 2
 495.0078125 344.745117188 l 1
 574.19140625 225.969726562 l 2
 578.674804688 219.245117188 586.327148438 214.811523438 595.0078125 214.811523438 c 0
 614.056640625 214.811523438 627.124023438 236.703125 615.82421875 253.653320312 c 2
 515.82421875 403.653320312 l 2
 511.340820312 410.377929688 503.688476562 414.811523438 495.0078125 414.811523438 c 0
195.0078125 414.811523438 m 0
 186.327148438 414.811523438 178.674804688 410.377929688 174.19140625 403.653320312 c 2
 74.19140625 253.653320312 l 2
 62.908203125 236.728515625 75.9443359375 214.811523438 95.0078125 214.811523438 c 0
 103.688476562 214.811523438 111.340820312 219.245117188 115.82421875 225.969726562 c 2
 195.0078125 344.745117188 l 1
 274.19140625 225.969726562 l 2
 278.674804688 219.245117188 286.327148438 214.811523438 295.0078125 214.811523438 c 0
 314.056640625 214.811523438 327.124023438 236.703125 315.82421875 253.653320312 c 2
 215.82421875 403.653320312 l 2
 211.340820312 410.377929688 203.688476562 414.811523438 195.0078125 414.811523438 c 0
395.203125 105.25 m 0
 395.203125 77.63671875 372.81640625 55.25 345.203125 55.25 c 0
 317.58984375 55.25 295.203125 77.63671875 295.203125 105.25 c 0
 295.203125 132.86328125 317.58984375 155.25 345.203125 155.25 c 0
 372.81640625 155.25 395.203125 132.86328125 395.203125 105.25 c 0
395.203125 105.25 m 1024
EndSplineSet
Ligature2: "sitelen pona-1" l i n j a hyphen s u w i 
EndChar
